<?xml version="1.0" encoding="UTF-8"?>
<svg xmlns="http://www.w3.org/2000/svg" xmlns:xlink="http://www.w3.org/1999/xlink" width="64px" height="64px" viewBox="0 0 64 64" version="1.1">
<g id="surface1">
<path style=" stroke:none;fill-rule:nonzero;fill:rgb(0%,0%,0%);fill-opacity:1;" d="M 64 32 C 64 49.679688 49.679688 64 32 64 C 14.320312 64 0 49.679688 0 32 C 0 14.320312 14.320312 0 32 0 C 49.679688 0 64 14.320312 64 32 "/>
<path style=" stroke:none;fill-rule:nonzero;fill:rgb(100%,100%,100%);fill-opacity:1;" d="M 32.539062 20.015625 L 40.808594 40.449219 L 28.316406 30.589844 Z M 47.25 45.152344 L 34.515625 14.5 C 34.21875 13.664062 33.410156 13.125 32.539062 13.152344 C 31.640625 13.125 30.832031 13.664062 30.5 14.5 L 16.507812 48.121094 L 21.304688 48.121094 L 26.847656 34.246094 L 43.355469 47.582031 C 44.015625 48.121094 44.496094 48.359375 45.125 48.359375 C 46.382812 48.390625 47.429688 47.402344 47.460938 46.140625 C 47.460938 46.113281 47.460938 46.113281 47.460938 46.082031 C 47.460938 45.78125 47.371094 45.453125 47.25 45.152344 "/>
</g>
</svg>
