<?xml version="1.0" encoding="UTF-8"?>
<svg xmlns="http://www.w3.org/2000/svg" xmlns:xlink="http://www.w3.org/1999/xlink" width="64px" height="64px" viewBox="0 0 64 64" version="1.1">
<defs>
<clipPath id="clip1">
  <path d="M 21 20.5 L 43 20.5 L 43 46 L 21 46 Z M 21 20.5 "/>
</clipPath>
<clipPath id="clip2">
  <path d="M 42.847656 20.566406 L 41.574219 49.683594 L 22.445312 49.683594 L 21.382812 20.566406 "/>
</clipPath>
</defs>
<g id="surface1">
<path style=" stroke:none;fill-rule:nonzero;fill:rgb(91.372549%,39.607843%,29.411765%);fill-opacity:1;" d="M 22.015625 44.796875 C 22.015625 44.796875 21.59375 46.070312 20.953125 46.710938 C 20.578125 47.128906 20.035156 47.363281 19.46875 47.347656 C 18.421875 47.628906 17.355469 47.839844 16.277344 47.984375 C 16.277344 47.984375 17.765625 48.199219 19.46875 48.410156 C 20.105469 48.410156 20.105469 48.410156 20.53125 48.621094 C 21.59375 48.621094 22.015625 47.984375 22.015625 47.984375 Z M 41.574219 44.796875 C 41.574219 44.796875 41.996094 46.070312 42.636719 46.710938 C 43.011719 47.128906 43.558594 47.363281 44.121094 47.347656 C 45.171875 47.628906 46.234375 47.84375 47.308594 47.984375 C 47.308594 47.984375 45.824219 48.199219 43.910156 48.410156 C 43.273438 48.410156 43.273438 48.410156 42.847656 48.621094 C 41.574219 48.621094 41.359375 47.984375 41.359375 47.984375 Z M 41.574219 44.796875 "/>
<path style=" stroke:none;fill-rule:nonzero;fill:rgb(71.372549%,81.176471%,91.764706%);fill-opacity:1;" d="M 54.964844 23.753906 C 54.964844 36.429688 44.683594 46.710938 32.007812 46.710938 C 19.328125 46.710938 9.054688 36.429688 9.054688 23.753906 C 9.054688 11.078125 19.328125 0.800781 32.007812 0.800781 C 44.683594 0.800781 54.964844 11.078125 54.964844 23.753906 Z M 54.964844 23.753906 "/>
<path style=" stroke:none;fill-rule:nonzero;fill:rgb(90.196078%,96.078431%,97.254902%);fill-opacity:1;" d="M 54.113281 23.753906 C 54.113281 35.964844 44.21875 45.859375 32.007812 45.859375 C 19.800781 45.859375 9.90625 35.964844 9.90625 23.753906 C 9.90625 11.546875 19.800781 1.648438 32.007812 1.648438 C 44.21875 1.648438 54.113281 11.546875 54.113281 23.753906 Z M 54.113281 23.753906 "/>
<path style=" stroke:none;fill-rule:nonzero;fill:rgb(81.568627%,90.980392%,94.117647%);fill-opacity:1;" d="M 50.074219 24.179688 C 50.074219 34.15625 41.988281 42.246094 32.007812 42.246094 C 22.03125 42.246094 13.941406 34.15625 13.941406 24.179688 C 13.941406 14.203125 22.03125 6.113281 32.007812 6.113281 C 41.988281 6.113281 50.074219 14.203125 50.074219 24.179688 Z M 50.074219 24.179688 "/>
<path style=" stroke:none;fill-rule:nonzero;fill:rgb(93.333333%,47.45098%,29.411765%);fill-opacity:1;" d="M 21.382812 32.679688 C 21.382812 32.679688 22.867188 56.699219 22.867188 57.125 C 22.867188 57.335938 23.082031 57.761719 22.015625 58.1875 C 20.953125 58.613281 17.554688 59.460938 17.554688 59.460938 L 22.65625 59.460938 C 24.992188 59.460938 24.992188 57.550781 24.992188 57.125 C 24.992188 56.699219 25.632812 47.558594 25.632812 47.558594 C 25.632812 47.558594 25.84375 58.402344 25.84375 58.824219 C 25.84375 59.25 25.632812 59.886719 24.144531 60.3125 C 23.082031 60.527344 19.890625 61.164062 19.890625 61.164062 L 24.78125 61.164062 C 27.757812 61.164062 27.757812 59.25 27.757812 59.25 L 28.394531 49.683594 C 28.394531 49.683594 28.609375 59.25 28.609375 60.3125 C 28.609375 61.164062 27.96875 61.800781 25.632812 62.222656 C 24.144531 62.652344 22.230469 63.074219 22.230469 63.074219 L 27.757812 63.074219 C 30.519531 62.863281 30.945312 60.949219 30.945312 60.949219 L 35.621094 37.144531 Z M 21.382812 32.679688 "/>
<path style=" stroke:none;fill-rule:nonzero;fill:rgb(93.333333%,47.45098%,29.411765%);fill-opacity:1;" d="M 42.636719 32.679688 C 42.636719 32.679688 41.148438 56.699219 41.148438 57.125 C 41.148438 57.335938 40.933594 57.761719 42 58.1875 C 43.058594 58.613281 46.460938 59.460938 46.460938 59.460938 L 41.359375 59.460938 C 39.023438 59.460938 39.023438 57.550781 39.023438 57.125 C 39.023438 56.699219 38.386719 47.558594 38.386719 47.558594 C 38.386719 47.558594 38.171875 58.402344 38.171875 58.824219 C 38.171875 59.25 38.386719 59.886719 39.871094 60.3125 L 44.121094 61.164062 L 39.234375 61.164062 C 36.261719 61.164062 36.261719 59.25 36.261719 59.25 L 35.621094 49.683594 C 35.621094 49.683594 35.410156 59.25 35.410156 60.3125 C 35.410156 61.164062 36.046875 61.800781 38.386719 62.222656 C 39.875 62.652344 41.785156 63.074219 41.785156 63.074219 L 36.261719 63.074219 C 33.496094 62.863281 33.070312 60.949219 33.070312 60.949219 L 28.394531 37.144531 Z M 42.847656 20.992188 C 42.847656 26.945312 37.960938 31.617188 32.21875 31.617188 C 26.484375 31.617188 21.59375 26.730469 21.59375 20.992188 C 21.59375 15.253906 26.484375 10.363281 32.21875 10.363281 C 37.960938 10.363281 42.847656 15.039062 42.847656 20.992188 Z M 42.847656 20.992188 "/>
<g clip-path="url(#clip1)" clip-rule="nonzero">
<g clip-path="url(#clip2)" clip-rule="nonzero">
<path style=" stroke:none;fill-rule:nonzero;fill:rgb(93.333333%,47.45098%,29.411765%);fill-opacity:1;" d="M 51.136719 26.730469 C 51.136719 37.175781 42.667969 45.648438 32.21875 45.648438 C 21.773438 45.648438 13.304688 37.175781 13.304688 26.730469 C 13.304688 16.28125 21.773438 7.816406 32.21875 7.816406 C 42.667969 7.816406 51.136719 16.28125 51.136719 26.730469 Z M 51.136719 26.730469 "/>
</g>
</g>
<path style=" stroke:none;fill-rule:nonzero;fill:rgb(0.392157%,0.392157%,0.392157%);fill-opacity:1;" d="M 35.835938 36.929688 C 35.835938 40.546875 34.132812 42.886719 32.007812 42.886719 C 29.882812 42.886719 28.179688 40.121094 28.179688 36.507812 C 28.179688 36.507812 29.882812 39.90625 32.21875 39.90625 C 34.558594 39.90625 35.835938 36.929688 35.835938 36.929688 Z M 35.835938 36.929688 "/>
<path style=" stroke:none;fill-rule:nonzero;fill:rgb(100%,100%,100%);fill-opacity:1;" d="M 35.835938 36.929688 C 35.835938 39.273438 34.132812 40.546875 32.007812 40.546875 C 29.882812 40.546875 28.394531 38.84375 28.394531 36.71875 C 28.394531 36.71875 30.09375 38.84375 32.433594 38.84375 C 34.773438 38.84375 35.835938 36.929688 35.835938 36.929688 Z M 35.835938 36.929688 "/>
<path style=" stroke:none;fill-rule:nonzero;fill:rgb(91.372549%,39.607843%,29.411765%);fill-opacity:1;" d="M 46.035156 26.945312 C 46.035156 30.582031 43.085938 33.53125 39.449219 33.53125 C 35.808594 33.53125 32.859375 30.582031 32.859375 26.945312 C 32.859375 23.304688 35.808594 20.351562 39.449219 20.351562 C 43.085938 20.351562 46.035156 23.304688 46.035156 26.945312 Z M 31.15625 26.945312 C 31.15625 30.582031 28.207031 33.53125 24.566406 33.53125 C 20.929688 33.53125 17.980469 30.582031 17.980469 26.945312 C 17.980469 23.304688 20.929688 20.351562 24.570312 20.351562 C 28.207031 20.351562 31.160156 23.304688 31.160156 26.945312 Z M 31.15625 26.945312 "/>
<path style=" stroke:none;fill-rule:nonzero;fill:rgb(100%,100%,100%);fill-opacity:1;" d="M 44.550781 26.945312 C 44.550781 29.761719 42.265625 32.046875 39.449219 32.046875 C 36.632812 32.046875 34.34375 29.761719 34.34375 26.945312 C 34.34375 24.125 36.628906 21.84375 39.449219 21.84375 C 42.261719 21.84375 44.550781 24.125 44.550781 26.945312 Z M 29.242188 26.945312 C 29.242188 29.761719 26.960938 32.046875 24.144531 32.046875 C 21.324219 32.046875 19.042969 29.761719 19.042969 26.945312 C 19.042969 24.125 21.328125 21.839844 24.144531 21.84375 C 26.960938 21.84375 29.246094 24.125 29.246094 26.945312 Z M 29.242188 26.945312 "/>
<path style=" stroke:none;fill-rule:nonzero;fill:rgb(0.392157%,0.392157%,0.392157%);fill-opacity:1;" d="M 25.632812 26.304688 C 25.632812 27.125 24.964844 27.792969 24.144531 27.792969 C 23.324219 27.792969 22.65625 27.128906 22.65625 26.304688 C 22.65625 25.484375 23.320312 24.820312 24.140625 24.816406 C 24.964844 24.816406 25.628906 25.484375 25.632812 26.304688 Z M 40.933594 26.304688 C 40.945312 26.84375 40.664062 27.34375 40.199219 27.617188 C 39.734375 27.886719 39.160156 27.886719 38.695312 27.617188 C 38.230469 27.34375 37.949219 26.84375 37.960938 26.304688 C 37.972656 25.496094 38.636719 24.84375 39.445312 24.84375 C 40.257812 24.84375 40.921875 25.492188 40.933594 26.304688 Z M 40.933594 26.304688 "/>
<path style=" stroke:none;fill-rule:nonzero;fill:rgb(71.372549%,81.176471%,91.764706%);fill-opacity:1;" d="M 8.628906 29.492188 C 8.34375 29.511719 8.0625 29.40625 7.859375 29.203125 C 7.65625 29 7.546875 28.71875 7.566406 28.429688 L 7.566406 19.929688 C 7.546875 19.644531 7.65625 19.363281 7.859375 19.160156 C 8.0625 18.957031 8.34375 18.847656 8.628906 18.867188 C 8.914062 18.851562 9.195312 18.957031 9.398438 19.160156 C 9.601562 19.363281 9.710938 19.644531 9.691406 19.929688 L 9.691406 28.433594 C 9.710938 28.71875 9.601562 29 9.398438 29.203125 C 9.195312 29.40625 8.914062 29.511719 8.628906 29.496094 Z M 54.964844 29.492188 C 54.675781 29.511719 54.394531 29.40625 54.191406 29.199219 C 53.988281 29 53.882812 28.71875 53.902344 28.429688 L 53.902344 19.929688 C 53.882812 19.644531 53.988281 19.363281 54.195312 19.160156 C 54.394531 18.957031 54.675781 18.851562 54.964844 18.867188 C 55.25 18.851562 55.53125 18.957031 55.734375 19.160156 C 55.9375 19.363281 56.042969 19.644531 56.027344 19.929688 L 56.027344 28.433594 C 56.042969 28.71875 55.9375 29 55.734375 29.203125 C 55.53125 29.40625 55.25 29.511719 54.960938 29.496094 Z M 54.964844 29.492188 "/>
<path style=" stroke:none;fill-rule:nonzero;fill:rgb(100%,100%,100%);fill-opacity:1;" d="M 25.84375 6.753906 C 25.84375 7.339844 25.367188 7.816406 24.78125 7.816406 C 24.195312 7.816406 23.71875 7.339844 23.71875 6.753906 C 23.71875 6.164062 24.195312 5.691406 24.78125 5.691406 C 25.367188 5.691406 25.84375 6.164062 25.84375 6.753906 Z M 17.132812 35.445312 C 16.898438 35.472656 16.660156 35.394531 16.492188 35.234375 C 13.941406 32.046875 12.664062 28.007812 12.664062 23.96875 C 12.65625 20.609375 13.535156 17.308594 15.21875 14.402344 C 16.921875 11.636719 19.25 9.308594 22.015625 7.601562 C 22.382812 7.4375 22.808594 7.523438 23.082031 7.816406 C 23.246094 8.179688 23.160156 8.605469 22.867188 8.878906 C 17.5 11.910156 14.175781 17.589844 14.152344 23.753906 C 14.148438 27.535156 15.421875 31.207031 17.765625 34.171875 C 17.980469 34.382812 17.980469 35.019531 17.554688 35.234375 C 17.34375 35.445312 17.34375 35.445312 17.132812 35.445312 Z M 17.132812 35.445312 "/>
</g>
</svg>
