<?xml version="1.0" encoding="UTF-8"?>
<svg xmlns="http://www.w3.org/2000/svg" xmlns:xlink="http://www.w3.org/1999/xlink" width="64px" height="64px" viewBox="0 0 64 64" version="1.1">
<g id="surface1">
<path style=" stroke:none;fill-rule:nonzero;fill:rgb(14.509805%,18.431373%,24.313726%);fill-opacity:1;" d="M 18.097656 26.734375 C 18.097656 27.519531 18.183594 28.15625 18.332031 28.621094 C 18.5 29.085938 18.710938 29.59375 19.007812 30.148438 C 19.113281 30.316406 19.15625 30.484375 19.15625 30.632812 C 19.15625 30.847656 19.03125 31.058594 18.753906 31.269531 L 17.417969 32.160156 C 17.230469 32.285156 17.039062 32.351562 16.867188 32.351562 C 16.65625 32.351562 16.445312 32.246094 16.234375 32.054688 C 15.9375 31.734375 15.683594 31.398438 15.46875 31.058594 C 15.257812 30.699219 15.046875 30.292969 14.8125 29.808594 C 13.160156 31.757812 11.082031 32.730469 8.582031 32.730469 C 6.800781 32.730469 5.382812 32.222656 4.34375 31.207031 C 3.304688 30.1875 2.777344 28.832031 2.777344 27.136719 C 2.777344 25.335938 3.410156 23.875 4.703125 22.773438 C 5.996094 21.667969 7.714844 21.117188 9.898438 21.117188 C 10.617188 21.117188 11.359375 21.183594 12.144531 21.289062 C 12.925781 21.394531 13.734375 21.5625 14.582031 21.753906 L 14.582031 20.207031 C 14.582031 18.597656 14.242188 17.472656 13.585938 16.816406 C 12.90625 16.160156 11.761719 15.84375 10.128906 15.84375 C 9.386719 15.84375 8.625 15.925781 7.839844 16.117188 C 7.058594 16.308594 6.292969 16.542969 5.550781 16.839844 C 5.214844 16.984375 4.957031 17.070312 4.8125 17.113281 C 4.664062 17.15625 4.554688 17.175781 4.472656 17.175781 C 4.175781 17.175781 4.027344 16.964844 4.027344 16.519531 L 4.027344 15.480469 C 4.027344 15.140625 4.070312 14.886719 4.175781 14.738281 C 4.28125 14.589844 4.472656 14.441406 4.769531 14.292969 C 5.511719 13.914062 6.398438 13.59375 7.4375 13.339844 C 8.476562 13.066406 9.578125 12.9375 10.746094 12.9375 C 13.265625 12.9375 15.109375 13.511719 16.296875 14.65625 C 17.460938 15.800781 18.054688 17.539062 18.054688 19.867188 L 18.054688 26.734375 Z M 9.492188 29.957031 C 10.195312 29.957031 10.914062 29.828125 11.675781 29.574219 C 12.441406 29.320312 13.117188 28.855469 13.691406 28.21875 C 14.027344 27.816406 14.285156 27.371094 14.410156 26.863281 C 14.539062 26.351562 14.621094 25.738281 14.621094 25.019531 L 14.621094 24.128906 C 14.007812 23.980469 13.351562 23.851562 12.671875 23.769531 C 11.996094 23.683594 11.335938 23.640625 10.679688 23.640625 C 9.261719 23.640625 8.222656 23.917969 7.523438 24.488281 C 6.824219 25.058594 6.484375 25.867188 6.484375 26.925781 C 6.484375 27.921875 6.738281 28.664062 7.269531 29.171875 C 7.777344 29.703125 8.519531 29.957031 9.492188 29.957031 Z M 26.511719 32.246094 C 26.128906 32.246094 25.875 32.179688 25.707031 32.03125 C 25.535156 31.90625 25.386719 31.609375 25.261719 31.207031 L 20.28125 14.824219 C 20.152344 14.402344 20.089844 14.125 20.089844 13.976562 C 20.089844 13.636719 20.257812 13.445312 20.597656 13.445312 L 22.675781 13.445312 C 23.078125 13.445312 23.355469 13.511719 23.503906 13.660156 C 23.671875 13.785156 23.796875 14.082031 23.925781 14.484375 L 27.484375 28.515625 L 30.792969 14.484375 C 30.898438 14.0625 31.023438 13.785156 31.195312 13.660156 C 31.363281 13.53125 31.660156 13.445312 32.042969 13.445312 L 33.738281 13.445312 C 34.140625 13.445312 34.414062 13.511719 34.585938 13.660156 C 34.753906 13.785156 34.902344 14.082031 34.988281 14.484375 L 38.335938 28.683594 L 42.003906 14.484375 C 42.128906 14.0625 42.277344 13.785156 42.425781 13.660156 C 42.597656 13.53125 42.871094 13.445312 43.253906 13.445312 L 45.222656 13.445312 C 45.5625 13.445312 45.753906 13.617188 45.753906 13.976562 C 45.753906 14.082031 45.734375 14.1875 45.710938 14.316406 C 45.691406 14.441406 45.648438 14.613281 45.5625 14.847656 L 40.457031 31.226562 C 40.328125 31.652344 40.179688 31.925781 40.011719 32.054688 C 39.839844 32.179688 39.566406 32.265625 39.207031 32.265625 L 37.382812 32.265625 C 36.980469 32.265625 36.703125 32.203125 36.535156 32.054688 C 36.367188 31.90625 36.21875 31.628906 36.132812 31.207031 L 32.847656 17.539062 L 29.585938 31.183594 C 29.476562 31.609375 29.351562 31.882812 29.179688 32.03125 C 29.011719 32.179688 28.714844 32.246094 28.332031 32.246094 Z M 53.742188 32.816406 C 52.640625 32.816406 51.539062 32.691406 50.480469 32.433594 C 49.417969 32.179688 48.59375 31.90625 48.042969 31.585938 C 47.703125 31.398438 47.46875 31.183594 47.386719 30.996094 C 47.300781 30.804688 47.257812 30.589844 47.257812 30.402344 L 47.257812 29.320312 C 47.257812 28.875 47.429688 28.664062 47.746094 28.664062 C 47.871094 28.664062 48 28.683594 48.128906 28.726562 C 48.253906 28.769531 48.445312 28.855469 48.65625 28.9375 C 49.378906 29.257812 50.160156 29.511719 50.988281 29.679688 C 51.835938 29.851562 52.664062 29.933594 53.511719 29.933594 C 54.84375 29.933594 55.882812 29.703125 56.605469 29.234375 C 57.324219 28.769531 57.707031 28.089844 57.707031 27.222656 C 57.707031 26.628906 57.515625 26.140625 57.132812 25.738281 C 56.753906 25.335938 56.03125 24.976562 54.992188 24.636719 L 51.921875 23.683594 C 50.375 23.195312 49.230469 22.476562 48.53125 21.519531 C 47.832031 20.589844 47.46875 19.550781 47.46875 18.449219 C 47.46875 17.558594 47.660156 16.773438 48.042969 16.097656 C 48.425781 15.417969 48.933594 14.824219 49.566406 14.359375 C 50.203125 13.871094 50.925781 13.511719 51.773438 13.257812 C 52.621094 13.003906 53.511719 12.894531 54.441406 12.894531 C 54.910156 12.894531 55.394531 12.917969 55.863281 12.980469 C 56.351562 13.042969 56.792969 13.128906 57.238281 13.214844 C 57.664062 13.320312 58.066406 13.425781 58.449219 13.554688 C 58.828125 13.679688 59.125 13.808594 59.335938 13.933594 C 59.632812 14.105469 59.847656 14.273438 59.972656 14.464844 C 60.101562 14.632812 60.164062 14.867188 60.164062 15.164062 L 60.164062 16.160156 C 60.164062 16.605469 59.996094 16.839844 59.675781 16.839844 C 59.507812 16.839844 59.230469 16.753906 58.871094 16.582031 C 57.664062 16.03125 56.308594 15.757812 54.800781 15.757812 C 53.59375 15.757812 52.640625 15.949219 51.984375 16.351562 C 51.328125 16.753906 50.988281 17.367188 50.988281 18.238281 C 50.988281 18.828125 51.199219 19.339844 51.625 19.742188 C 52.046875 20.144531 52.832031 20.546875 53.953125 20.90625 L 56.964844 21.859375 C 58.488281 22.347656 59.59375 23.027344 60.25 23.894531 C 60.90625 24.765625 61.222656 25.761719 61.222656 26.863281 C 61.222656 27.773438 61.03125 28.597656 60.671875 29.320312 C 60.292969 30.039062 59.78125 30.675781 59.125 31.183594 C 58.46875 31.714844 57.683594 32.097656 56.773438 32.371094 C 55.820312 32.667969 54.824219 32.816406 53.742188 32.816406 Z M 53.742188 32.816406 "/>
<path style=" stroke:none;fill-rule:nonzero;fill:rgb(100%,60.000002%,0%);fill-opacity:1;" d="M 57.75 43.117188 C 50.777344 48.265625 40.644531 51 31.9375 51 C 19.730469 51 8.730469 46.484375 0.425781 38.984375 C -0.234375 38.390625 0.359375 37.585938 1.144531 38.050781 C 10.128906 43.265625 21.214844 46.421875 32.679688 46.421875 C 40.414062 46.421875 48.910156 44.8125 56.730469 41.503906 C 57.898438 40.976562 58.894531 42.269531 57.75 43.117188 Z M 60.652344 39.808594 C 59.761719 38.664062 54.761719 39.257812 52.492188 39.535156 C 51.816406 39.621094 51.707031 39.027344 52.324219 38.582031 C 56.308594 35.785156 62.855469 36.589844 63.617188 37.519531 C 64.382812 38.476562 63.40625 45.023438 59.675781 48.160156 C 59.105469 48.648438 58.554688 48.394531 58.808594 47.757812 C 59.65625 45.660156 61.542969 40.933594 60.652344 39.808594 Z M 60.652344 39.808594 "/>
</g>
</svg>
