<?xml version="1.0" encoding="UTF-8"?>
<svg xmlns="http://www.w3.org/2000/svg" xmlns:xlink="http://www.w3.org/1999/xlink" width="64px" height="64px" viewBox="0 0 64 64" version="1.1">
<g id="surface1">
<path style=" stroke:none;fill-rule:nonzero;fill:rgb(0%,53.72549%,83.921569%);fill-opacity:1;" d="M 11.011719 40.203125 C 14.070312 39.664062 16.597656 39.214844 16.625 39.210938 L 16.679688 39.199219 L 13.792969 35.765625 C 12.203125 33.875 10.902344 32.324219 10.902344 32.3125 C 10.902344 32.296875 13.886719 24.085938 13.902344 24.058594 C 13.90625 24.046875 15.9375 27.550781 18.820312 32.546875 C 21.519531 37.226562 23.746094 41.085938 23.765625 41.121094 L 23.804688 41.1875 L 5.453125 41.1875 Z M 46.203125 39.371094 C 44.804688 39.28125 43.992188 38.488281 43.777344 37 C 43.722656 36.601562 43.71875 36.59375 43.714844 34.023438 L 43.710938 31.535156 L 44.945312 31.535156 L 44.949219 33.941406 C 44.953125 36.109375 44.957031 36.363281 44.976562 36.515625 C 45.0625 37.136719 45.230469 37.550781 45.515625 37.851562 C 45.742188 38.089844 46.011719 38.230469 46.378906 38.304688 C 46.554688 38.339844 47.050781 38.339844 47.210938 38.304688 C 47.585938 38.222656 47.886719 38.058594 48.152344 37.792969 C 48.453125 37.492188 48.679688 37.0625 48.785156 36.578125 L 48.824219 36.414062 L 48.828125 33.988281 L 48.832031 31.558594 L 50.09375 31.558594 L 50.09375 39.191406 L 48.84375 39.191406 L 48.84375 38.585938 C 48.84375 38.175781 48.839844 37.984375 48.828125 37.984375 C 48.820312 37.988281 48.789062 38.039062 48.757812 38.09375 C 48.542969 38.488281 48.183594 38.847656 47.792969 39.0625 C 47.320312 39.320312 46.847656 39.414062 46.203125 39.371094 Z M 60.378906 39.367188 C 59.886719 39.328125 59.367188 39.160156 58.945312 38.898438 C 58.050781 38.34375 57.519531 37.433594 57.363281 36.175781 C 57.3125 35.742188 57.304688 35.160156 57.351562 34.789062 C 57.449219 33.964844 57.773438 33.15625 58.234375 32.578125 C 58.351562 32.429688 58.621094 32.164062 58.769531 32.042969 C 59.167969 31.726562 59.636719 31.5 60.132812 31.394531 C 60.425781 31.328125 60.933594 31.300781 61.242188 31.328125 C 62.015625 31.398438 62.722656 31.761719 63.203125 32.335938 C 63.691406 32.917969 63.960938 33.730469 63.996094 34.730469 C 64 34.886719 64 35.164062 63.996094 35.34375 L 63.992188 35.667969 L 58.578125 35.675781 L 58.578125 35.796875 C 58.578125 36.164062 58.667969 36.582031 58.824219 36.9375 C 58.957031 37.246094 59.1875 37.582031 59.375 37.742188 C 59.757812 38.074219 60.230469 38.273438 60.746094 38.324219 C 60.9375 38.339844 61.425781 38.320312 61.640625 38.289062 C 62.261719 38.191406 62.855469 37.949219 63.332031 37.589844 C 63.386719 37.550781 63.441406 37.511719 63.449219 37.503906 C 63.464844 37.496094 63.46875 37.605469 63.46875 38.066406 L 63.46875 38.640625 L 63.339844 38.722656 C 62.800781 39.054688 62.179688 39.269531 61.527344 39.347656 C 61.332031 39.375 60.613281 39.382812 60.378906 39.367188 Z M 62.734375 34.523438 C 62.734375 33.90625 62.476562 33.222656 62.109375 32.871094 C 61.847656 32.617188 61.53125 32.464844 61.152344 32.40625 C 60.976562 32.378906 60.597656 32.390625 60.410156 32.429688 C 60.015625 32.507812 59.6875 32.683594 59.398438 32.964844 C 59.097656 33.265625 58.871094 33.625 58.730469 34.039062 C 58.679688 34.1875 58.617188 34.429688 58.601562 34.566406 L 58.589844 34.628906 L 62.734375 34.628906 Z M 26.035156 39.175781 C 26.035156 39.164062 26.957031 36.75 28.074219 33.8125 L 30.113281 28.464844 L 31.417969 28.464844 L 31.472656 28.605469 C 31.640625 29.027344 35.550781 39.179688 35.550781 39.1875 C 35.550781 39.1875 35.238281 39.191406 34.855469 39.191406 L 34.15625 39.191406 L 33.03125 36.191406 L 28.492188 36.191406 L 28.472656 36.242188 C 28.460938 36.269531 28.222656 36.945312 27.9375 37.742188 L 27.421875 39.191406 L 26.726562 39.191406 C 26.171875 39.191406 26.027344 39.1875 26.035156 39.175781 Z M 32.617188 35.046875 C 32.617188 35.042969 32.238281 34.015625 31.773438 32.761719 C 30.90625 30.414062 30.859375 30.273438 30.789062 29.898438 C 30.757812 29.71875 30.742188 29.714844 30.722656 29.875 C 30.707031 29.992188 30.648438 30.25 30.605469 30.394531 C 30.582031 30.464844 30.191406 31.535156 29.734375 32.773438 C 29.28125 34.011719 28.910156 35.03125 28.910156 35.039062 C 28.910156 35.046875 29.742188 35.050781 30.761719 35.050781 C 31.78125 35.050781 32.617188 35.046875 32.617188 35.046875 Z M 35.972656 38.996094 L 35.972656 38.800781 L 38.230469 35.695312 L 40.492188 32.585938 L 36.398438 32.570312 L 36.394531 32.054688 L 36.390625 31.535156 L 42.3125 31.535156 L 42.3125 31.882812 L 40.050781 35.007812 C 38.808594 36.726562 37.789062 38.136719 37.789062 38.140625 C 37.789062 38.144531 38.796875 38.144531 40.023438 38.144531 L 42.257812 38.144531 L 42.257812 39.191406 L 35.972656 39.191406 Z M 52.558594 39.183594 C 52.554688 39.179688 52.550781 37.453125 52.550781 35.355469 L 52.550781 31.535156 L 53.785156 31.535156 L 53.785156 32.320312 C 53.785156 32.753906 53.792969 33.109375 53.796875 33.109375 C 53.804688 33.109375 53.835938 33.039062 53.863281 32.949219 C 54.003906 32.554688 54.246094 32.183594 54.554688 31.886719 C 54.835938 31.621094 55.152344 31.464844 55.53125 31.402344 C 55.636719 31.386719 55.726562 31.382812 55.9375 31.386719 C 56.203125 31.394531 56.34375 31.414062 56.503906 31.46875 L 56.554688 31.484375 L 56.554688 32.765625 L 56.410156 32.691406 C 56.152344 32.5625 55.898438 32.511719 55.59375 32.527344 C 55.394531 32.539062 55.261719 32.566406 55.101562 32.625 C 54.777344 32.746094 54.511719 32.964844 54.324219 33.261719 C 54.054688 33.6875 53.863281 34.238281 53.808594 34.746094 C 53.796875 34.835938 53.792969 35.578125 53.789062 37.035156 L 53.785156 39.191406 L 53.175781 39.191406 C 52.84375 39.191406 52.566406 39.1875 52.558594 39.183594 Z M 0 39.15625 C 0 39.152344 1.359375 36.789062 3.023438 33.90625 L 6.046875 28.667969 L 9.570312 25.710938 C 11.507812 24.085938 13.097656 22.753906 13.105469 22.75 C 13.113281 22.746094 13.085938 22.8125 13.046875 22.894531 C 13.011719 22.972656 11.289062 26.667969 9.222656 31.097656 L 5.464844 39.15625 L 2.734375 39.160156 C 1.230469 39.164062 0 39.160156 0 39.15625 Z M 0 39.15625 "/>
</g>
</svg>
