<?xml version="1.0" encoding="UTF-8"?>
<svg xmlns="http://www.w3.org/2000/svg" xmlns:xlink="http://www.w3.org/1999/xlink" width="64px" height="64px" viewBox="0 0 64 64" version="1.1">
<g id="surface1">
<path style=" stroke:none;fill-rule:nonzero;fill:rgb(13.72549%,58.823529%,92.941176%);fill-opacity:1;" d="M 62.679688 26.5 C 61.238281 25.5 57.933594 25.125 55.351562 25.625 C 55.054688 23.125 53.671875 20.9375 51.269531 19 L 49.886719 18 L 48.929688 19.4375 C 47.726562 21.3125 47.125 23.9375 47.304688 26.4375 C 47.367188 27.3125 47.667969 28.875 48.566406 30.25 C 47.726562 30.75 45.984375 31.375 43.703125 31.375 L 0.289062 31.375 L 0.167969 31.875 C -0.25 34.375 -0.25 42.1875 4.671875 48.1875 C 8.394531 52.75 13.917969 55.0625 21.183594 55.0625 C 36.917969 55.0625 48.566406 47.5 54.03125 33.8125 C 56.195312 33.875 60.816406 33.8125 63.160156 29.125 C 63.21875 29 63.339844 28.75 63.761719 27.8125 L 64 27.3125 Z M 34.996094 8.875 L 28.390625 8.875 L 28.390625 15.125 L 34.996094 15.125 Z M 34.996094 16.375 L 28.390625 16.375 L 28.390625 22.625 L 34.996094 22.625 Z M 27.191406 16.375 L 20.585938 16.375 L 20.585938 22.625 L 27.191406 22.625 Z M 19.382812 16.375 L 12.777344 16.375 L 12.777344 22.625 L 19.382812 22.625 Z M 11.578125 23.875 L 4.972656 23.875 L 4.972656 30.125 L 11.578125 30.125 Z M 19.382812 23.875 L 12.777344 23.875 L 12.777344 30.125 L 19.382812 30.125 Z M 27.191406 23.875 L 20.585938 23.875 L 20.585938 30.125 L 27.191406 30.125 Z M 34.996094 23.875 L 28.390625 23.875 L 28.390625 30.125 L 34.996094 30.125 Z M 42.804688 23.875 L 36.199219 23.875 L 36.199219 30.125 L 42.804688 30.125 Z M 42.804688 23.875 "/>
</g>
</svg>
