<?xml version="1.0" encoding="UTF-8"?>
<svg xmlns="http://www.w3.org/2000/svg" xmlns:xlink="http://www.w3.org/1999/xlink" width="64px" height="64px" viewBox="0 0 64 64" version="1.1">
<g id="surface1">
<path style=" stroke:none;fill-rule:evenodd;fill:rgb(0%,0%,0%);fill-opacity:1;" d="M 32 0 C 49.671875 0 64 14.6875 64 32.808594 C 64 47.300781 54.839844 59.597656 42.132812 63.9375 C 40.511719 64.261719 39.9375 63.238281 39.9375 62.363281 C 39.9375 61.28125 39.972656 57.75 39.972656 53.359375 C 39.972656 50.300781 38.949219 48.304688 37.800781 47.285156 C 44.929688 46.472656 52.414062 43.699219 52.414062 31.097656 C 52.414062 27.511719 51.175781 24.589844 49.121094 22.292969 C 49.453125 21.460938 50.550781 18.125 48.804688 13.605469 C 48.804688 13.605469 46.125 12.726562 40.015625 16.96875 C 37.460938 16.242188 34.71875 15.878906 32 15.867188 C 29.28125 15.878906 26.542969 16.242188 23.992188 16.96875 C 17.875 12.726562 15.1875 13.605469 15.1875 13.605469 C 13.449219 18.125 14.546875 21.460938 14.875 22.292969 C 12.832031 24.589844 11.582031 27.511719 11.582031 31.097656 C 11.582031 43.667969 19.054688 46.484375 26.160156 47.3125 C 25.246094 48.132812 24.414062 49.578125 24.128906 51.699219 C 22.304688 52.539062 17.671875 53.988281 14.816406 48.972656 C 14.816406 48.972656 13.125 45.820312 9.910156 45.589844 C 9.910156 45.589844 6.789062 45.546875 9.691406 47.585938 C 9.691406 47.585938 11.789062 48.59375 13.246094 52.382812 C 13.246094 52.382812 15.125 58.238281 24.027344 56.257812 C 24.042969 59 24.070312 61.585938 24.070312 62.363281 C 24.070312 63.230469 23.480469 64.246094 21.886719 63.941406 C 9.167969 59.605469 0 47.304688 0 32.808594 C 0 14.6875 14.328125 0 32 0 "/>
</g>
</svg>
