<?xml version="1.0" encoding="UTF-8"?>
<svg xmlns="http://www.w3.org/2000/svg" xmlns:xlink="http://www.w3.org/1999/xlink" width="64px" height="64px" viewBox="0 0 64 64" version="1.1">
<g id="surface1">
<path style=" stroke:none;fill-rule:evenodd;fill:rgb(12.54902%,13.72549%,15.294118%);fill-opacity:1;" d="M 32 0 C 49.671875 0 64 14.328125 64 32 C 64 49.671875 49.671875 64 32 64 C 14.328125 64 0 49.671875 0 32 C 0 14.328125 14.328125 0 32 0 Z M 31.984375 14.011719 C 22.046875 14.007812 14 22.050781 14 31.980469 C 14 39.832031 19.035156 46.503906 26.046875 48.957031 C 26.988281 49.191406 26.84375 48.519531 26.84375 48.0625 L 26.84375 44.949219 C 21.394531 45.589844 21.171875 41.980469 20.804688 41.378906 C 20.066406 40.117188 18.320312 39.792969 18.839844 39.191406 C 20.082031 38.554688 21.347656 39.351562 22.816406 41.519531 C 23.875 43.089844 25.945312 42.824219 26.992188 42.5625 C 27.222656 41.617188 27.714844 40.773438 28.386719 40.121094 C 22.738281 39.109375 20.382812 35.660156 20.382812 31.5625 C 20.382812 29.574219 21.039062 27.746094 22.324219 26.269531 C 21.503906 23.839844 22.402344 21.757812 22.523438 21.449219 C 24.855469 21.238281 27.28125 23.121094 27.472656 23.269531 C 28.796875 22.910156 30.3125 22.722656 32.007812 22.722656 C 33.710938 22.722656 35.230469 22.917969 36.566406 23.28125 C 37.023438 22.9375 39.273438 21.320312 41.441406 21.515625 C 41.558594 21.828125 42.433594 23.859375 41.664062 26.257812 C 42.964844 27.738281 43.628906 29.582031 43.628906 31.574219 C 43.628906 35.679688 41.257812 39.132812 35.59375 40.128906 C 36.535156 41.058594 37.121094 42.355469 37.121094 43.785156 L 37.121094 48.304688 C 37.15625 48.667969 37.121094 49.023438 37.726562 49.023438 C 44.839844 46.625 49.964844 39.902344 49.964844 31.984375 C 49.964844 22.050781 41.910156 14.011719 31.984375 14.011719 Z M 31.984375 14.011719 "/>
</g>
</svg>
