<?xml version="1.0" encoding="UTF-8"?>
<svg xmlns="http://www.w3.org/2000/svg" xmlns:xlink="http://www.w3.org/1999/xlink" width="64px" height="64px" viewBox="0 0 64 64" version="1.1">
<g id="surface1">
<path style=" stroke:none;fill-rule:nonzero;fill:rgb(96.470588%,82.352941%,63.529412%);fill-opacity:1;" d="M 9.136719 34.605469 C 9.230469 36.492188 11.117188 35.613281 11.957031 35.027344 C 12.765625 34.457031 13.003906 34.933594 13.078125 33.835938 C 13.132812 33.101562 13.203125 32.386719 13.167969 31.65625 C 11.941406 31.546875 10.621094 31.839844 9.613281 32.570312 C 9.082031 32.9375 8.128906 34.148438 9.136719 34.605469 "/>
<path style=" stroke:none;fill-rule:nonzero;fill:rgb(96.470588%,82.352941%,63.529412%);fill-opacity:1;" d="M 46.746094 57.796875 C 48.195312 58.695312 50.851562 61.40625 48.671875 62.726562 C 46.582031 64.628906 45.410156 60.617188 43.578125 60.070312 C 44.367188 58.988281 45.355469 58 46.746094 57.796875 Z M 46.746094 57.796875 "/>
<path style=" stroke:none;fill-rule:nonzero;fill:rgb(96.470588%,82.352941%,63.529412%);fill-opacity:1;" d="M 20.84375 60.855469 C 19.140625 61.113281 18.1875 62.652344 16.757812 63.441406 C 15.421875 64.226562 14.90625 63.183594 14.796875 62.964844 C 14.597656 62.871094 14.613281 63.054688 14.285156 62.726562 C 13.039062 60.765625 15.566406 59.335938 16.886719 58.363281 C 18.71875 58 19.871094 59.59375 20.84375 60.855469 Z M 20.84375 60.855469 "/>
<path style=" stroke:none;fill-rule:nonzero;fill:rgb(96.470588%,82.352941%,63.529412%);fill-opacity:1;" d="M 54.789062 34.367188 C 54.699219 36.253906 52.8125 35.375 51.96875 34.789062 C 51.160156 34.21875 50.921875 34.695312 50.851562 33.597656 C 50.796875 32.863281 50.722656 32.148438 50.757812 31.417969 C 51.984375 31.308594 53.304688 31.601562 54.3125 32.332031 C 54.824219 32.699219 55.796875 33.910156 54.789062 34.367188 "/>
<path style=" stroke:none;fill-rule:nonzero;fill:rgb(41.176471%,84.313725%,88.627451%);fill-opacity:1;" d="M 49.789062 11.359375 C 56.328125 9.050781 51.21875 0.0898438 45.519531 4.046875 C 41.78125 0.84375 36.636719 0.257812 31.230469 0.257812 C 25.9375 0.679688 20.898438 1.648438 17.382812 4.726562 C 11.703125 1.0625 6.464844 9.855469 13.132812 12.074219 C 11.261719 19.328125 13.386719 26.726562 13.09375 34.109375 C 12.820312 40.742188 11.078125 49.625 14.761719 55.582031 C 17.894531 60.671875 24.636719 62.488281 30.1875 62.6875 C 37.277344 62.945312 45.867188 61.203125 49.3125 54.335938 C 52.609375 47.792969 51.691406 39.644531 51.273438 32.589844 C 50.851562 25.464844 51.636719 18.226562 49.789062 11.359375 Z M 49.789062 11.359375 "/>
<path style=" stroke:none;fill-rule:nonzero;fill:rgb(0%,0%,0%);fill-opacity:1;" d="M 55.285156 33.25 C 55.101562 32.863281 54.753906 32.425781 54.421875 32.1875 C 53.578125 31.582031 52.5 31.253906 51.382812 31.214844 C 51.34375 30.082031 51.308594 28.835938 51.308594 27.257812 L 51.308594 25.832031 C 51.289062 21.324219 51.234375 19.34375 50.980469 16.871094 C 50.777344 14.929688 50.464844 13.136719 50.027344 11.449219 C 51.511719 10.882812 52.480469 9.949219 52.867188 8.738281 C 53.230469 7.621094 53.046875 6.355469 52.425781 5.238281 C 51.785156 4.140625 50.757812 3.316406 49.566406 2.984375 C 48.285156 2.636719 46.894531 2.894531 45.554688 3.792969 C 44.367188 2.785156 42.992188 2.015625 41.453125 1.429688 C 38.722656 0.421875 35.554688 0.0351562 31.25 0.0351562 L 31.25 0.21875 L 31.230469 0.0351562 C 26.632812 0.402344 23.226562 1.117188 20.402344 2.492188 C 19.269531 3.039062 18.261719 3.699219 17.382812 4.46875 C 16.027344 3.628906 14.613281 3.425781 13.3125 3.828125 C 12.105469 4.195312 11.0625 5.054688 10.4375 6.171875 C 9.816406 7.292969 9.667969 8.574219 10.089844 9.671875 C 10.511719 10.773438 11.484375 11.632812 12.929688 12.164062 C 12.472656 14.015625 12.234375 15.972656 12.195312 18.136719 C 12.160156 20.242188 12.25 21.929688 12.582031 25.738281 C 12.820312 28.578125 12.910156 29.878906 12.949219 31.453125 C 11.703125 31.398438 10.457031 31.730469 9.523438 32.40625 C 9.191406 32.644531 8.824219 33.066406 8.660156 33.46875 C 8.421875 33.980469 8.515625 34.441406 8.992188 34.714844 C 9.0625 35.59375 9.558594 35.996094 10.308594 35.925781 C 10.859375 35.867188 11.519531 35.574219 12.085938 35.171875 C 12.214844 35.082031 12.34375 35.007812 12.472656 34.953125 C 12.527344 34.933594 12.5625 34.917969 12.617188 34.898438 C 12.617188 34.898438 12.726562 34.863281 12.765625 34.84375 C 12.820312 34.824219 12.875 34.804688 12.910156 34.769531 C 12.875 35.632812 12.800781 36.527344 12.636719 38.582031 C 12.453125 40.886719 12.363281 42.152344 12.324219 43.5625 C 12.160156 48.800781 12.78125 52.613281 14.652344 55.636719 C 15.238281 56.589844 15.953125 57.429688 16.796875 58.199219 C 16.628906 58.308594 15.933594 58.824219 15.714844 58.988281 C 14.945312 59.574219 14.414062 60.070312 14.101562 60.617188 C 13.699219 61.332031 13.699219 62.046875 14.15625 62.796875 L 14.195312 62.835938 C 14.394531 63.035156 14.503906 63.089844 14.652344 63.089844 L 14.707031 63.089844 C 14.726562 63.128906 14.742188 63.144531 14.761719 63.183594 C 14.816406 63.273438 14.871094 63.347656 14.925781 63.421875 C 15.382812 63.953125 16.027344 64.082031 16.886719 63.566406 C 17.34375 63.328125 17.675781 63.054688 18.371094 62.46875 C 18.390625 62.449219 18.390625 62.449219 18.40625 62.433594 C 19.523438 61.480469 20.074219 61.132812 20.898438 61.003906 L 21.191406 60.949219 C 21.300781 61.003906 21.410156 61.039062 21.539062 61.09375 C 24.140625 62.140625 27.164062 62.707031 30.222656 62.816406 C 34.179688 62.964844 37.992188 62.46875 41.214844 61.296875 C 42.074219 60.984375 42.882812 60.617188 43.652344 60.214844 C 44.128906 60.398438 44.53125 60.785156 45.300781 61.679688 C 45.335938 61.71875 45.335938 61.71875 45.355469 61.753906 C 45.390625 61.789062 45.390625 61.808594 45.410156 61.828125 C 45.445312 61.882812 45.5 61.917969 45.539062 61.972656 C 46.140625 62.6875 46.546875 63.035156 47.003906 63.238281 C 47.609375 63.496094 48.195312 63.367188 48.796875 62.816406 C 49.859375 62.15625 49.933594 61.132812 49.238281 59.957031 C 48.742188 59.132812 47.882812 58.273438 47.078125 57.722656 C 48.03125 56.789062 48.855469 55.671875 49.496094 54.40625 C 51.253906 50.890625 51.929688 46.789062 51.894531 41.511719 C 51.875 39.644531 51.804688 38.011719 51.601562 34.898438 L 51.601562 34.804688 C 51.691406 34.84375 51.785156 34.898438 51.875 34.972656 C 52.445312 35.355469 53.105469 35.667969 53.652344 35.722656 C 54.40625 35.796875 54.898438 35.394531 54.972656 34.511719 C 55.429688 34.21875 55.523438 33.761719 55.285156 33.25 Z M 49.457031 3.371094 C 50.558594 3.664062 51.511719 4.433594 52.097656 5.460938 C 52.683594 6.484375 52.847656 7.640625 52.515625 8.664062 C 52.167969 9.746094 51.289062 10.605469 49.917969 11.121094 C 49.640625 10.128906 49.3125 9.160156 48.945312 8.226562 C 49.476562 7.765625 49.734375 7.199219 49.3125 6.394531 C 48.890625 5.585938 48.15625 5.496094 47.40625 5.734375 C 46.929688 5.109375 46.398438 4.5625 45.847656 4.046875 C 47.058594 3.277344 48.304688 3.058594 49.457031 3.371094 Z M 10.402344 9.5625 C 10.015625 8.574219 10.144531 7.402344 10.730469 6.375 C 11.316406 5.347656 12.269531 4.542969 13.40625 4.214844 C 14.578125 3.867188 15.84375 4.03125 17.089844 4.761719 C 16.375 5.402344 15.734375 6.136719 15.183594 6.941406 C 14.230469 6.449219 13.257812 6.355469 12.710938 7.363281 C 12.140625 8.445312 12.800781 9.121094 13.734375 9.636719 C 13.609375 9.949219 13.480469 10.277344 13.371094 10.605469 C 13.242188 11.011719 13.113281 11.429688 13.003906 11.851562 C 11.664062 11.339844 10.785156 10.550781 10.402344 9.5625 Z M 12.617188 34.53125 C 12.601562 34.53125 12.488281 34.570312 12.488281 34.585938 C 12.433594 34.605469 12.378906 34.625 12.324219 34.660156 C 12.179688 34.714844 12.03125 34.804688 11.886719 34.917969 C 11.371094 35.28125 10.75 35.558594 10.273438 35.59375 C 9.722656 35.648438 9.414062 35.410156 9.355469 34.75 C 9.742188 34.625 9.90625 34.53125 10.054688 34.3125 L 9.761719 34.09375 C 9.652344 34.238281 9.539062 34.292969 9.210938 34.402344 C 9.191406 34.402344 9.191406 34.402344 9.175781 34.421875 C 8.882812 34.257812 8.824219 34 8.992188 33.632812 C 9.136719 33.304688 9.46875 32.917969 9.742188 32.71875 C 10.621094 32.078125 11.792969 31.765625 12.964844 31.839844 C 12.964844 32.296875 12.984375 32.753906 12.964844 33.195312 C 12.964844 33.25 12.964844 33.285156 12.949219 33.339844 C 12.929688 33.597656 12.929688 33.707031 12.910156 33.835938 C 12.855469 34.367188 12.820312 34.441406 12.617188 34.53125 Z M 18.152344 62.175781 C 18.132812 62.195312 18.132812 62.195312 18.113281 62.210938 C 17.4375 62.796875 17.105469 63.035156 16.683594 63.273438 C 15.988281 63.695312 15.511719 63.605469 15.183594 63.203125 C 15.128906 63.144531 15.089844 63.074219 15.054688 63.019531 C 15.035156 63 15.019531 62.964844 15 62.945312 C 15 62.945312 15 62.945312 15 62.925781 C 15.035156 62.597656 15.164062 62.359375 15.496094 61.847656 C 15.511719 61.828125 15.511719 61.828125 15.511719 61.808594 C 15.714844 61.515625 15.804688 61.351562 15.898438 61.148438 L 15.566406 61.003906 C 15.496094 61.167969 15.402344 61.316406 15.21875 61.609375 C 15.203125 61.625 15.203125 61.625 15.203125 61.644531 C 14.871094 62.121094 14.726562 62.414062 14.652344 62.742188 L 14.632812 62.742188 C 14.632812 62.742188 14.632812 62.742188 14.613281 62.742188 L 14.578125 62.742188 C 14.542969 62.726562 14.488281 62.6875 14.414062 62.613281 C 13.699219 61.480469 14.265625 60.507812 15.878906 59.300781 C 16.082031 59.152344 16.757812 58.675781 16.941406 58.53125 C 16.976562 58.53125 17.015625 58.511719 17.050781 58.492188 C 18.039062 59.335938 19.195312 60.070312 20.476562 60.671875 C 20.476562 60.691406 20.496094 60.710938 20.515625 60.726562 C 19.761719 60.910156 19.175781 61.296875 18.152344 62.175781 Z M 48.910156 60.179688 C 49.476562 61.132812 49.457031 61.902344 48.742188 62.433594 C 48.6875 62.320312 48.652344 62.195312 48.578125 62.011719 C 48.578125 61.992188 48.578125 61.992188 48.5625 61.972656 C 48.304688 61.277344 48.140625 60.984375 47.828125 60.65625 L 47.570312 60.910156 C 47.847656 61.167969 47.972656 61.441406 48.230469 62.082031 C 48.230469 62.101562 48.230469 62.101562 48.25 62.121094 C 48.339844 62.359375 48.394531 62.503906 48.449219 62.632812 C 47.972656 63.035156 47.554688 63.109375 47.113281 62.910156 C 46.730469 62.742188 46.363281 62.394531 45.777344 61.734375 C 45.738281 61.699219 45.703125 61.644531 45.667969 61.589844 C 45.648438 61.570312 45.628906 61.550781 45.609375 61.515625 C 45.574219 61.480469 45.574219 61.480469 45.554688 61.441406 C 44.878906 60.65625 44.476562 60.234375 44.035156 59.996094 C 45.0625 59.410156 45.976562 58.75 46.800781 57.980469 C 47.570312 58.546875 48.433594 59.390625 48.910156 60.179688 Z M 49.164062 54.242188 C 47.589844 57.414062 44.804688 59.648438 41.066406 61.003906 C 37.878906 62.15625 34.105469 62.632812 30.203125 62.488281 C 23.480469 62.25 17.65625 59.902344 14.925781 55.46875 C 13.09375 52.519531 12.488281 48.765625 12.65625 43.601562 C 12.710938 42.1875 12.78125 40.925781 12.964844 38.617188 C 13.167969 36.015625 13.222656 35.265625 13.277344 34.09375 C 13.3125 33.25 13.3125 32.386719 13.296875 31.472656 C 13.257812 29.859375 13.167969 28.578125 12.929688 25.703125 C 12.601562 21.890625 12.507812 20.222656 12.546875 18.136719 C 12.601562 15.386719 12.964844 12.96875 13.734375 10.679688 C 14.980469 6.960938 17.269531 4.453125 20.570312 2.820312 C 23.335938 1.464844 26.6875 0.769531 31.25 0.402344 C 35.515625 0.402344 38.632812 0.789062 41.324219 1.777344 C 44.546875 2.96875 46.949219 5.054688 48.597656 8.261719 C 49.660156 10.863281 50.28125 13.667969 50.613281 16.890625 C 50.867188 19.34375 50.921875 21.324219 50.941406 25.8125 L 50.941406 27.242188 C 50.960938 29.457031 50.996094 31.015625 51.089844 32.570312 C 51.125 33.175781 51.144531 33.433594 51.234375 34.878906 C 51.4375 37.992188 51.511719 39.605469 51.527344 41.476562 C 51.566406 46.730469 50.90625 50.78125 49.164062 54.242188 Z M 54.769531 34.183594 C 54.753906 34.183594 54.734375 34.164062 54.714844 34.164062 C 54.386719 34.054688 54.277344 33.980469 54.167969 33.855469 L 53.875 34.074219 C 54.039062 34.292969 54.203125 34.386719 54.570312 34.511719 C 54.496094 35.171875 54.183594 35.410156 53.652344 35.355469 C 53.175781 35.320312 52.554688 35.027344 52.042969 34.679688 C 51.894531 34.570312 51.75 34.496094 51.601562 34.421875 C 51.582031 34.421875 51.566406 34.402344 51.546875 34.402344 C 51.472656 33.394531 51.472656 33.140625 51.4375 32.609375 C 51.417969 32.277344 51.398438 31.949219 51.382812 31.617188 C 52.40625 31.636719 53.414062 31.949219 54.183594 32.515625 C 54.460938 32.71875 54.789062 33.101562 54.9375 33.433594 C 55.117188 33.742188 55.082031 34.019531 54.769531 34.183594 Z M 54.769531 34.183594 "/>
<path style=" stroke:none;fill-rule:nonzero;fill:rgb(100%,100%,100%);fill-opacity:1;" d="M 34.007812 19.148438 C 34.027344 20.082031 34.210938 21.109375 34.042969 22.097656 C 33.789062 22.574219 33.3125 22.628906 32.890625 22.8125 C 32.304688 22.722656 31.808594 22.335938 31.570312 21.785156 C 31.425781 20.667969 31.609375 19.605469 31.664062 18.488281 C 31.664062 18.453125 32.359375 18.507812 32.980469 18.691406 C 33.511719 18.855469 34.007812 19.128906 34.007812 19.148438 Z M 34.007812 19.148438 "/>
<path style=" stroke:none;fill-rule:nonzero;fill:rgb(100%,100%,100%);fill-opacity:1;" d="M 28.824219 19.222656 C 28.3125 21.164062 29.5 24.332031 31.460938 21.730469 C 31.316406 20.632812 31.480469 19.570312 31.535156 18.488281 C 31.554688 18.398438 28.84375 19.09375 28.824219 19.222656 Z M 28.824219 19.222656 "/>
<path style=" stroke:none;fill-rule:nonzero;fill:rgb(0%,0%,0%);fill-opacity:1;" d="M 34.226562 20.011719 C 34.191406 19.460938 34.171875 19.242188 34.171875 18.964844 L 34.171875 18.835938 L 34.042969 18.800781 L 31.734375 18.085938 L 31.734375 17.957031 L 31.5 18.011719 L 31.480469 18.011719 L 31.480469 18.03125 L 28.878906 18.691406 L 28.785156 18.710938 L 28.75 18.800781 C 28.347656 19.773438 28.4375 21.238281 28.953125 22.136719 C 29.539062 23.160156 30.492188 23.179688 31.460938 22.007812 C 31.734375 22.539062 32.25 22.90625 32.835938 22.996094 L 32.890625 22.996094 L 32.945312 22.976562 C 33.019531 22.941406 33.09375 22.921875 33.21875 22.867188 C 33.238281 22.867188 33.238281 22.867188 33.257812 22.847656 C 33.789062 22.667969 34.007812 22.519531 34.191406 22.171875 L 34.210938 22.152344 L 34.210938 22.117188 C 34.265625 21.785156 34.28125 21.4375 34.28125 21.054688 C 34.28125 20.78125 34.265625 20.523438 34.226562 20.011719 Z M 31.296875 19.332031 C 31.277344 19.660156 31.261719 19.789062 31.242188 19.972656 C 31.203125 20.652344 31.203125 21.164062 31.261719 21.675781 C 30.398438 22.777344 29.722656 22.777344 29.261719 21.953125 C 28.824219 21.183594 28.730469 19.882812 29.0625 19.019531 L 31.371094 18.433594 C 31.351562 18.671875 31.332031 18.910156 31.296875 19.332031 Z M 33.859375 22.042969 C 33.734375 22.261719 33.566406 22.375 33.128906 22.519531 C 33.109375 22.519531 33.109375 22.519531 33.09375 22.539062 C 32.980469 22.574219 32.910156 22.613281 32.855469 22.628906 C 32.359375 22.539062 31.9375 22.207031 31.734375 21.75 C 31.679688 21.253906 31.679688 20.742188 31.71875 20.066406 C 31.734375 19.882812 31.734375 19.753906 31.773438 19.425781 C 31.808594 19.003906 31.828125 18.746094 31.828125 18.507812 L 33.824219 19.113281 C 33.824219 19.351562 33.84375 19.570312 33.878906 20.046875 C 33.917969 20.542969 33.933594 20.796875 33.933594 21.089844 C 33.933594 21.4375 33.917969 21.75 33.859375 22.042969 Z M 33.859375 22.042969 "/>
<path style=" stroke:none;fill-rule:nonzero;fill:rgb(100%,100%,100%);fill-opacity:1;" d="M 17.796875 11.167969 C 19.480469 17.726562 29.976562 16.039062 29.574219 9.464844 C 29.097656 1.585938 16.183594 3.105469 17.796875 11.167969 "/>
<path style=" stroke:none;fill-rule:nonzero;fill:rgb(0%,0%,0%);fill-opacity:1;" d="M 29.757812 9.445312 C 29.648438 7.539062 28.804688 6.054688 27.414062 5.121094 C 26.167969 4.28125 24.519531 3.949219 22.890625 4.152344 C 21.257812 4.371094 19.757812 5.105469 18.765625 6.257812 C 17.667969 7.539062 17.246094 9.226562 17.632812 11.167969 L 17.796875 11.132812 L 17.632812 11.167969 C 19.351562 17.910156 30.160156 16.277344 29.757812 9.445312 Z M 17.960938 11.132812 C 17.59375 9.28125 17.996094 7.707031 19.023438 6.515625 C 19.957031 5.433594 21.367188 4.71875 22.925781 4.519531 C 24.484375 4.316406 26.039062 4.628906 27.210938 5.433594 C 28.511719 6.3125 29.300781 7.6875 29.410156 9.5 C 29.796875 15.894531 19.589844 17.433594 17.960938 11.132812 Z M 17.960938 11.132812 "/>
<path style=" stroke:none;fill-rule:nonzero;fill:rgb(0%,0%,0%);fill-opacity:1;" d="M 22.46875 10.085938 C 22.46875 9.023438 21.671875 8.164062 20.691406 8.164062 C 19.710938 8.164062 18.914062 9.023438 18.914062 10.085938 C 18.914062 11.148438 19.710938 12.011719 20.691406 12.011719 C 21.671875 12.011719 22.46875 11.148438 22.46875 10.085938 Z M 22.46875 10.085938 "/>
<path style=" stroke:none;fill-rule:nonzero;fill:rgb(100%,100%,100%);fill-opacity:1;" d="M 21.917969 10.527344 C 21.917969 10.253906 21.730469 10.03125 21.496094 10.03125 C 21.265625 10.03125 21.074219 10.253906 21.074219 10.527344 C 21.074219 10.800781 21.265625 11.019531 21.496094 11.019531 C 21.730469 11.019531 21.917969 10.800781 21.917969 10.527344 Z M 21.917969 10.527344 "/>
<path style=" stroke:none;fill-rule:nonzero;fill:rgb(100%,100%,100%);fill-opacity:1;" d="M 32.515625 9.941406 C 33.816406 17.472656 46.128906 15.472656 44.351562 7.890625 C 42.757812 1.074219 32.078125 2.960938 32.515625 9.941406 "/>
<path style=" stroke:none;fill-rule:nonzero;fill:rgb(0%,0%,0%);fill-opacity:1;" d="M 44.515625 7.851562 C 42.886719 0.835938 31.894531 2.761719 32.335938 9.960938 L 32.335938 9.976562 C 32.9375 13.53125 36.109375 15.347656 39.605469 14.757812 C 41.199219 14.484375 42.628906 13.714844 43.5625 12.578125 C 44.589844 11.316406 44.957031 9.683594 44.515625 7.851562 Z M 43.289062 12.359375 C 42.410156 13.421875 41.074219 14.15625 39.550781 14.410156 C 36.234375 14.960938 33.269531 13.257812 32.683594 9.921875 C 32.277344 3.144531 42.648438 1.332031 44.1875 7.925781 C 44.589844 9.667969 44.261719 11.1875 43.289062 12.359375 Z M 43.289062 12.359375 "/>
<path style=" stroke:none;fill-rule:nonzero;fill:rgb(0%,0%,0%);fill-opacity:1;" d="M 37.28125 9.613281 C 37.28125 8.550781 36.5 7.6875 35.539062 7.6875 C 34.578125 7.6875 33.800781 8.550781 33.800781 9.613281 C 33.800781 10.675781 34.578125 11.535156 35.539062 11.535156 C 36.5 11.535156 37.28125 10.675781 37.28125 9.613281 Z M 37.28125 9.613281 "/>
<path style=" stroke:none;fill-rule:nonzero;fill:rgb(100%,100%,100%);fill-opacity:1;" d="M 36.75 10.050781 C 36.75 9.777344 36.570312 9.558594 36.347656 9.558594 C 36.125 9.558594 35.941406 9.777344 35.941406 10.050781 C 35.941406 10.324219 36.125 10.546875 36.347656 10.546875 C 36.570312 10.546875 36.75 10.324219 36.75 10.050781 Z M 36.75 10.050781 "/>
<path style=" stroke:none;fill-rule:nonzero;fill:rgb(96.470588%,82.352941%,63.529412%);fill-opacity:1;" d="M 29.203125 15.265625 C 27.753906 15.394531 26.582031 17.097656 27.332031 18.453125 C 28.324219 20.246094 30.539062 18.289062 31.914062 18.46875 C 33.507812 18.507812 34.808594 20.15625 36.070312 18.765625 C 37.480469 17.226562 35.46875 15.722656 33.875 15.0625 Z M 29.203125 15.265625 "/>
<path style=" stroke:none;fill-rule:nonzero;fill:rgb(13.72549%,12.156863%,12.54902%);fill-opacity:1;" d="M 36.253906 16.492188 C 35.761719 15.871094 34.898438 15.300781 33.964844 14.917969 L 33.929688 14.898438 L 33.890625 14.898438 L 29.203125 15.082031 C 27.570312 15.226562 26.398438 17.113281 27.1875 18.542969 C 27.5 19.09375 27.917969 19.367188 28.488281 19.40625 C 28.910156 19.421875 29.347656 19.332031 30.027344 19.09375 C 30.082031 19.074219 30.15625 19.058594 30.246094 19.019531 C 31.160156 18.707031 31.527344 18.617188 31.894531 18.671875 L 31.914062 18.671875 C 32.351562 18.671875 32.71875 18.800781 33.414062 19.074219 C 34.183594 19.386719 34.421875 19.476562 34.808594 19.515625 C 35.339844 19.550781 35.796875 19.367188 36.21875 18.910156 C 36.933594 18.121094 36.894531 17.28125 36.253906 16.492188 Z M 35.941406 18.652344 C 35.59375 19.039062 35.246094 19.167969 34.824219 19.148438 C 34.496094 19.128906 34.277344 19.039062 33.542969 18.746094 C 32.8125 18.433594 32.40625 18.324219 31.929688 18.304688 C 31.472656 18.25 31.089844 18.34375 30.117188 18.671875 C 30.027344 18.707031 29.953125 18.726562 29.898438 18.746094 C 28.5625 19.203125 27.917969 19.167969 27.480469 18.359375 C 26.820312 17.171875 27.828125 15.558594 29.203125 15.429688 L 33.835938 15.246094 C 34.714844 15.613281 35.503906 16.144531 35.960938 16.710938 C 36.511719 17.371094 36.53125 18.03125 35.941406 18.652344 Z M 35.941406 18.652344 "/>
<path style=" stroke:none;fill-rule:nonzero;fill:rgb(0%,0%,0%);fill-opacity:1;" d="M 34.238281 14.476562 C 33.671875 12.386719 28.910156 12.699219 29.019531 15.191406 C 29.257812 17.042969 34.789062 16.546875 34.238281 14.476562 Z M 34.238281 14.476562 "/>
</g>
</svg>
