<?xml version="1.0" encoding="UTF-8"?>
<svg xmlns="http://www.w3.org/2000/svg" xmlns:xlink="http://www.w3.org/1999/xlink" width="64px" height="64px" viewBox="0 0 64 64" version="1.1">
<defs>
<linearGradient id="linear0" gradientUnits="userSpaceOnUse" x1="0.499948" y1="1.224504" x2="0.499948" y2="0.31139" gradientTransform="matrix(58.71875,0,0,63.816406,2.636719,0)">
<stop offset="0" style="stop-color:rgb(100%,94.509804%,0%);stop-opacity:1;"/>
<stop offset="1" style="stop-color:rgb(94.117647%,35.294118%,15.686275%);stop-opacity:1;"/>
</linearGradient>
</defs>
<g id="surface1">
<path style=" stroke:none;fill-rule:nonzero;fill:url(#linear0);" d="M 61.269531 28.164062 C 61.164062 27.089844 60.988281 25.859375 60.636719 24.488281 C 60.285156 23.136719 59.757812 21.640625 58.984375 20.09375 C 58.210938 18.546875 57.207031 16.949219 55.90625 15.382812 C 55.394531 14.765625 54.832031 14.167969 54.234375 13.589844 C 55.132812 10.019531 53.144531 6.925781 53.144531 6.925781 C 49.71875 6.714844 47.539062 8 46.730469 8.578125 C 46.589844 8.527344 46.464844 8.457031 46.324219 8.402344 C 45.746094 8.175781 45.148438 7.945312 44.515625 7.753906 C 43.898438 7.558594 43.265625 7.382812 42.617188 7.226562 C 41.964844 7.066406 41.3125 6.945312 40.644531 6.839844 C 40.523438 6.820312 40.417969 6.804688 40.292969 6.785156 C 38.800781 2.003906 34.511719 0 34.511719 0 C 29.710938 3.042969 28.816406 7.296875 28.816406 7.296875 C 28.816406 7.296875 28.796875 7.382812 28.761719 7.542969 C 28.5 7.613281 28.234375 7.699219 27.972656 7.769531 C 27.601562 7.875 27.234375 8.015625 26.882812 8.15625 C 26.511719 8.296875 26.160156 8.4375 25.792969 8.597656 C 25.070312 8.914062 24.347656 9.265625 23.644531 9.652344 C 22.960938 10.039062 22.292969 10.460938 21.640625 10.898438 C 21.554688 10.863281 21.464844 10.828125 21.464844 10.828125 C 14.820312 8.296875 8.933594 11.339844 8.933594 11.339844 C 8.386719 18.40625 11.585938 22.855469 12.21875 23.664062 C 12.0625 24.101562 11.921875 24.542969 11.78125 24.980469 C 11.289062 26.582031 10.917969 28.214844 10.691406 29.921875 C 10.65625 30.167969 10.621094 30.414062 10.601562 30.660156 C 4.449219 33.703125 2.636719 39.90625 2.636719 39.90625 C 7.753906 45.796875 13.730469 46.164062 13.730469 46.164062 C 13.730469 46.164062 13.75 46.148438 13.75 46.148438 C 14.503906 47.5 15.382812 48.785156 16.367188 50 C 16.789062 50.507812 17.210938 50.984375 17.667969 51.457031 C 15.804688 56.800781 17.933594 61.230469 17.933594 61.230469 C 23.628906 61.441406 27.375 58.734375 28.164062 58.121094 C 28.726562 58.3125 29.308594 58.488281 29.886719 58.628906 C 31.644531 59.085938 33.4375 59.351562 35.230469 59.421875 C 35.671875 59.4375 36.128906 59.457031 36.566406 59.4375 L 37.199219 59.4375 L 37.480469 59.421875 L 37.480469 59.4375 C 40.171875 63.269531 44.882812 63.816406 44.882812 63.816406 C 48.242188 60.28125 48.433594 56.765625 48.433594 56.011719 C 48.433594 56.011719 48.433594 55.992188 48.433594 55.957031 C 48.433594 55.886719 48.433594 55.851562 48.433594 55.851562 C 48.433594 55.800781 48.433594 55.746094 48.433594 55.695312 C 49.136719 55.203125 49.804688 54.675781 50.4375 54.09375 C 51.773438 52.882812 52.953125 51.492188 53.9375 50 C 54.023438 49.859375 54.113281 49.71875 54.199219 49.578125 C 58 49.789062 60.6875 47.21875 60.6875 47.21875 C 60.054688 43.265625 57.804688 41.332031 57.328125 40.960938 C 57.328125 40.960938 57.3125 40.945312 57.277344 40.925781 C 57.242188 40.910156 57.242188 40.890625 57.242188 40.890625 C 57.222656 40.875 57.1875 40.855469 57.152344 40.839844 C 57.171875 40.59375 57.1875 40.363281 57.207031 40.117188 C 57.242188 39.695312 57.242188 39.257812 57.242188 38.835938 L 57.242188 38.273438 C 57.242188 38.167969 57.242188 38.203125 57.242188 38.167969 L 57.222656 37.902344 L 57.207031 37.550781 C 57.207031 37.429688 57.1875 37.324219 57.171875 37.21875 C 57.152344 37.113281 57.152344 36.988281 57.136719 36.882812 L 57.101562 36.550781 L 57.046875 36.214844 C 56.976562 35.777344 56.90625 35.355469 56.800781 34.914062 C 56.398438 33.210938 55.730469 31.589844 54.867188 30.132812 C 53.988281 28.671875 52.898438 27.390625 51.652344 26.300781 C 50.421875 25.210938 49.03125 24.332031 47.589844 23.679688 C 46.132812 23.03125 44.621094 22.609375 43.109375 22.414062 C 42.351562 22.308594 41.597656 22.273438 40.839844 22.292969 L 40.488281 22.292969 C 40.46875 22.292969 40.382812 22.292969 40.398438 22.292969 L 40.277344 22.292969 L 39.996094 22.308594 C 39.890625 22.308594 39.785156 22.328125 39.695312 22.328125 C 39.308594 22.363281 38.921875 22.414062 38.554688 22.484375 C 37.042969 22.765625 35.617188 23.3125 34.371094 24.066406 C 33.121094 24.824219 32.03125 25.753906 31.152344 26.808594 C 30.273438 27.863281 29.589844 29.042969 29.113281 30.253906 C 28.640625 31.46875 28.375 32.734375 28.304688 33.949219 C 28.289062 34.246094 28.289062 34.5625 28.289062 34.863281 C 28.289062 34.933594 28.289062 35.019531 28.289062 35.089844 L 28.304688 35.335938 C 28.324219 35.476562 28.324219 35.636719 28.339844 35.777344 C 28.394531 36.390625 28.515625 36.988281 28.675781 37.550781 C 29.007812 38.695312 29.535156 39.730469 30.1875 40.609375 C 30.835938 41.488281 31.628906 42.210938 32.453125 42.789062 C 33.28125 43.351562 34.175781 43.757812 35.054688 44.019531 C 35.933594 44.285156 36.8125 44.390625 37.640625 44.390625 C 37.746094 44.390625 37.851562 44.390625 37.9375 44.390625 C 37.992188 44.390625 38.042969 44.390625 38.097656 44.390625 C 38.148438 44.390625 38.203125 44.390625 38.253906 44.371094 C 38.34375 44.371094 38.429688 44.355469 38.519531 44.355469 C 38.535156 44.355469 38.570312 44.355469 38.589844 44.335938 L 38.675781 44.320312 C 38.730469 44.320312 38.78125 44.300781 38.835938 44.300781 C 38.941406 44.285156 39.027344 44.265625 39.132812 44.25 C 39.238281 44.230469 39.328125 44.214844 39.414062 44.179688 C 39.609375 44.144531 39.785156 44.074219 39.960938 44.019531 C 40.3125 43.898438 40.664062 43.757812 40.960938 43.597656 C 41.277344 43.441406 41.5625 43.246094 41.84375 43.070312 C 41.914062 43.019531 42 42.964844 42.070312 42.894531 C 42.351562 42.667969 42.40625 42.246094 42.175781 41.964844 C 41.984375 41.71875 41.632812 41.648438 41.347656 41.804688 C 41.277344 41.839844 41.207031 41.875 41.136719 41.910156 C 40.890625 42.035156 40.644531 42.140625 40.382812 42.226562 C 40.117188 42.316406 39.835938 42.386719 39.554688 42.4375 C 39.414062 42.457031 39.273438 42.472656 39.117188 42.492188 C 39.046875 42.492188 38.976562 42.507812 38.886719 42.507812 C 38.816406 42.507812 38.730469 42.507812 38.675781 42.507812 C 38.605469 42.507812 38.535156 42.507812 38.464844 42.507812 C 38.378906 42.507812 38.289062 42.507812 38.203125 42.492188 C 38.203125 42.492188 38.148438 42.492188 38.183594 42.492188 L 38.097656 42.492188 C 38.0625 42.492188 38.007812 42.492188 37.972656 42.472656 C 37.886719 42.457031 37.816406 42.457031 37.726562 42.4375 C 37.078125 42.351562 36.425781 42.15625 35.8125 41.875 C 35.179688 41.59375 34.582031 41.207031 34.035156 40.714844 C 33.492188 40.222656 33.015625 39.644531 32.648438 38.976562 C 32.277344 38.308594 32.015625 37.570312 31.890625 36.796875 C 31.839844 36.410156 31.804688 36.003906 31.820312 35.617188 C 31.820312 35.511719 31.839844 35.40625 31.839844 35.300781 C 31.839844 35.335938 31.839844 35.285156 31.839844 35.285156 L 31.839844 35.160156 C 31.839844 35.109375 31.855469 35.054688 31.855469 35.003906 C 31.875 34.792969 31.910156 34.582031 31.945312 34.371094 C 32.242188 32.679688 33.085938 31.027344 34.386719 29.78125 C 34.722656 29.464844 35.074219 29.183594 35.441406 28.917969 C 35.8125 28.65625 36.214844 28.425781 36.636719 28.234375 C 37.058594 28.039062 37.480469 27.882812 37.9375 27.757812 C 38.378906 27.636719 38.835938 27.566406 39.308594 27.511719 C 39.539062 27.496094 39.765625 27.476562 40.011719 27.476562 C 40.082031 27.476562 40.117188 27.476562 40.171875 27.476562 L 40.488281 27.476562 C 40.539062 27.476562 40.488281 27.476562 40.503906 27.476562 L 40.558594 27.476562 L 40.75 27.496094 C 41.261719 27.53125 41.753906 27.601562 42.246094 27.722656 C 43.230469 27.933594 44.199219 28.304688 45.09375 28.796875 C 46.886719 29.796875 48.417969 31.34375 49.347656 33.210938 C 49.824219 34.140625 50.15625 35.144531 50.316406 36.179688 C 50.351562 36.445312 50.386719 36.707031 50.402344 36.972656 L 50.421875 37.164062 L 50.4375 37.359375 C 50.4375 37.429688 50.4375 37.5 50.4375 37.550781 C 50.4375 37.621094 50.4375 37.691406 50.4375 37.746094 L 50.4375 38.113281 C 50.4375 38.238281 50.421875 38.449219 50.421875 38.570312 C 50.402344 38.851562 50.367188 39.152344 50.332031 39.433594 C 50.296875 39.714844 50.246094 39.996094 50.191406 40.277344 C 50.140625 40.558594 50.070312 40.839844 50 41.101562 C 49.859375 41.648438 49.683594 42.191406 49.472656 42.738281 C 49.050781 43.792969 48.488281 44.8125 47.820312 45.742188 C 46.464844 47.605469 44.621094 49.117188 42.511719 50.085938 C 41.457031 50.5625 40.347656 50.914062 39.203125 51.089844 C 38.640625 51.195312 38.0625 51.246094 37.480469 51.265625 L 36.671875 51.265625 C 36.742188 51.265625 36.65625 51.265625 36.65625 51.265625 L 36.601562 51.265625 C 36.285156 51.265625 35.988281 51.246094 35.671875 51.210938 C 34.441406 51.125 33.226562 50.894531 32.03125 50.5625 C 30.855469 50.226562 29.710938 49.753906 28.621094 49.1875 C 26.460938 48.027344 24.507812 46.445312 22.996094 44.53125 C 22.238281 43.582031 21.570312 42.542969 21.027344 41.472656 C 20.480469 40.398438 20.042969 39.257812 19.726562 38.113281 C 19.410156 36.953125 19.214844 35.777344 19.128906 34.582031 L 19.109375 34.351562 L 19.109375 33.351562 C 19.109375 33.351562 19.109375 33.367188 19.109375 33.332031 L 19.109375 33.226562 C 19.109375 33.085938 19.109375 32.925781 19.109375 32.785156 C 19.128906 32.207031 19.179688 31.589844 19.25 30.992188 C 19.320312 30.394531 19.425781 29.78125 19.550781 29.183594 C 19.671875 28.585938 19.8125 27.988281 19.988281 27.390625 C 20.324219 26.210938 20.746094 25.070312 21.238281 23.996094 C 22.238281 21.851562 23.539062 19.9375 25.105469 18.40625 C 25.492188 18.019531 25.898438 17.667969 26.320312 17.316406 C 26.742188 16.984375 27.179688 16.667969 27.636719 16.367188 C 28.078125 16.066406 28.550781 15.804688 29.027344 15.558594 C 29.253906 15.433594 29.5 15.3125 29.746094 15.207031 C 29.871094 15.152344 29.992188 15.101562 30.117188 15.046875 C 30.238281 14.996094 30.363281 14.941406 30.484375 14.890625 C 30.976562 14.679688 31.488281 14.503906 32.015625 14.34375 C 32.136719 14.308594 32.277344 14.273438 32.402344 14.222656 C 32.523438 14.1875 32.664062 14.152344 32.789062 14.117188 C 33.050781 14.046875 33.316406 13.976562 33.578125 13.921875 C 33.703125 13.886719 33.84375 13.871094 33.984375 13.835938 C 34.125 13.800781 34.246094 13.78125 34.386719 13.746094 C 34.527344 13.730469 34.652344 13.695312 34.792969 13.675781 L 34.984375 13.640625 L 35.195312 13.605469 C 35.335938 13.589844 35.460938 13.570312 35.601562 13.554688 C 35.757812 13.535156 35.898438 13.519531 36.058594 13.5 C 36.179688 13.484375 36.390625 13.464844 36.515625 13.449219 C 36.601562 13.429688 36.707031 13.429688 36.796875 13.414062 L 36.988281 13.394531 L 37.078125 13.378906 L 37.183594 13.378906 C 37.339844 13.359375 37.480469 13.359375 37.640625 13.34375 L 37.867188 13.324219 C 37.867188 13.324219 37.957031 13.324219 37.886719 13.324219 L 38.042969 13.324219 C 38.167969 13.324219 38.308594 13.308594 38.429688 13.308594 C 38.941406 13.289062 39.46875 13.289062 39.976562 13.308594 C 40.996094 13.34375 42 13.464844 42.96875 13.640625 C 44.917969 14.011719 46.746094 14.625 48.417969 15.453125 C 50.085938 16.261719 51.5625 17.265625 52.863281 18.355469 C 52.953125 18.425781 53.023438 18.496094 53.109375 18.566406 C 53.179688 18.636719 53.269531 18.707031 53.339844 18.777344 C 53.496094 18.917969 53.636719 19.058594 53.796875 19.199219 C 53.953125 19.339844 54.09375 19.480469 54.234375 19.621094 C 54.375 19.761719 54.515625 19.902344 54.65625 20.058594 C 55.203125 20.640625 55.710938 21.21875 56.167969 21.816406 C 57.082031 22.996094 57.820312 24.191406 58.402344 25.316406 C 58.4375 25.386719 58.472656 25.457031 58.507812 25.527344 C 58.542969 25.597656 58.578125 25.667969 58.613281 25.738281 C 58.683594 25.878906 58.753906 26.019531 58.808594 26.160156 C 58.878906 26.300781 58.929688 26.421875 59 26.5625 C 59.054688 26.703125 59.125 26.828125 59.175781 26.96875 C 59.386719 27.496094 59.597656 28.003906 59.757812 28.480469 C 60.019531 29.253906 60.214844 29.9375 60.371094 30.535156 C 60.425781 30.78125 60.652344 30.941406 60.898438 30.90625 C 61.164062 30.886719 61.355469 30.675781 61.355469 30.414062 C 61.375 29.78125 61.355469 29.023438 61.269531 28.164062 Z M 61.269531 28.164062 "/>
</g>
</svg>
