<?xml version="1.0" encoding="UTF-8"?>
<svg xmlns="http://www.w3.org/2000/svg" xmlns:xlink="http://www.w3.org/1999/xlink" width="64px" height="64px" viewBox="0 0 64 64" version="1.1">
<g id="surface1">
<path style=" stroke:none;fill-rule:nonzero;fill:rgb(94.117647%,83.921569%,71.764706%);fill-opacity:1;" d="M 14.871094 28.429688 C 14.972656 28.339844 15.082031 28.261719 15.199219 28.199219 C 15.078125 28.257812 14.96875 28.332031 14.871094 28.429688 Z M 14.871094 28.429688 "/>
<path style=" stroke:none;fill-rule:nonzero;fill:rgb(94.117647%,83.921569%,71.764706%);fill-opacity:1;" d="M 20.824219 36.507812 C 20.945312 37.347656 21.304688 44.835938 26.355469 49.007812 C 27.382812 49.164062 28.417969 49.273438 29.453125 49.328125 C 30.015625 48.128906 32.078125 48.222656 33.425781 48.53125 C 31.738281 47.667969 30.253906 46.457031 29.070312 44.972656 C 27.5 43.601562 26.457031 41.722656 26.128906 39.660156 C 28.824219 43.402344 31.050781 46.660156 35.953125 48.3125 C 39.664062 49.558594 43.996094 47.742188 46.847656 45.742188 C 47.945312 44.789062 48.867188 43.652344 49.574219 42.382812 C 52.808594 37.238281 54.3125 31.199219 53.867188 25.140625 C 53.957031 22.800781 53.617188 20.464844 52.867188 18.246094 C 51.960938 16.433594 48.898438 14.808594 47.105469 16.449219 C 47.078125 16.285156 47.066406 16.121094 47.074219 15.957031 C 46.789062 16.222656 46.613281 16.421875 46.613281 16.421875 C 46.464844 16.117188 46.382812 15.785156 46.371094 15.445312 C 46.421875 13.8125 47.734375 12.5 49.371094 12.445312 C 48.515625 11.285156 47.523438 10.234375 46.410156 9.320312 C 42.511719 7.988281 38.304688 7.832031 34.316406 8.875 C 28.691406 10.085938 24.136719 14.203125 22.367188 19.675781 C 21.988281 21.160156 21.726562 22.675781 21.59375 24.203125 C 21.53125 25.96875 22.425781 27.511719 22.492188 29.4375 C 22.015625 30.222656 20.554688 30.320312 19.542969 30.269531 C 19.46875 29.894531 19.378906 29.511719 19.273438 29.136719 C 18.476562 28.691406 17.625 28.355469 16.742188 28.136719 C 18.34375 28.792969 19.210938 30.539062 18.761719 32.210938 C 18.015625 31.785156 17.835938 29.910156 16.960938 29.859375 C 15.707031 29.78125 15.9375 32.289062 15.941406 33.757812 C 15.0625 32.445312 14.917969 30.773438 15.5625 29.332031 C 14.992188 29.054688 14.675781 29.453125 14.363281 29.765625 C 13.917969 31.839844 13.269531 33.511719 14.484375 35.605469 C 15.191406 36.425781 16.234375 36.867188 17.3125 36.804688 C 18.449219 36.695312 18.726562 35.558594 19.960938 35.570312 C 20.429688 35.644531 20.789062 36.03125 20.824219 36.507812 Z M 33.722656 40.398438 L 33.121094 40.277344 C 33.121094 40.277344 32.492188 38.078125 32.796875 37.664062 C 32.957031 37.453125 33.835938 37.128906 35.066406 37.722656 C 35.058594 37.722656 33.601562 37.96875 33.722656 40.398438 Z M 45.132812 43.082031 C 42.910156 43.835938 40.5 43.828125 38.28125 43.054688 C 37.238281 42.289062 36.367188 41.316406 35.714844 40.199219 C 35.40625 39.800781 33.863281 38.785156 35.691406 38.78125 C 37.125 42.382812 42.050781 41.964844 46.207031 41.867188 C 46.015625 42.394531 45.632812 42.828125 45.132812 43.085938 Z M 45.734375 39.882812 C 45.640625 39.175781 45.640625 38.460938 45.734375 37.757812 C 47.839844 37.34375 49.847656 36.539062 51.652344 35.386719 C 50.734375 37.917969 48.417969 39.675781 45.730469 39.878906 Z M 51.246094 23.734375 C 50.878906 23.859375 48.507812 25.261719 48.691406 23.492188 C 48.878906 22.425781 49.6875 21.578125 50.742188 21.339844 C 50.722656 21.070312 50.722656 20.804688 50.742188 20.539062 L 50.898438 20.539062 C 51.566406 22.121094 52.347656 23.652344 53.242188 25.117188 C 52.609375 26.59375 48.445312 27.898438 48.511719 25.25 C 49.410156 24.851562 50.964844 25.171875 51.765625 24.667969 C 51.574219 24.152344 51.363281 23.667969 51.164062 23.15625 Z M 40.871094 33.234375 C 40.90625 33.300781 40.9375 33.367188 40.964844 33.4375 C 41.144531 32.421875 41.480469 31.234375 42.058594 31.410156 C 42.636719 31.570312 43.042969 32.085938 43.058594 32.6875 C 42.386719 33.121094 41.75 33.617188 41.164062 34.160156 C 41.292969 34.761719 41.453125 35.363281 42.210938 35.496094 C 44.421875 35.875 46.996094 34.144531 48.589844 33.539062 C 49.574219 31.875 48.503906 31.265625 47.613281 30.195312 C 45.792969 27.992188 43.355469 25.28125 43.441406 21.992188 C 44.179688 21.460938 44.242188 22.808594 44.347656 23.054688 C 45.695312 25.609375 47.410156 27.960938 49.433594 30.027344 C 49.859375 30.492188 50.566406 30.945312 50.644531 31.253906 C 50.871094 32.15625 50.054688 33.234375 50.148438 33.835938 C 47.617188 35.828125 44.4375 36.824219 41.21875 36.632812 C 40.285156 35.738281 40.136719 34.296875 40.867188 33.230469 Z M 44.789062 37.878906 C 44.914062 38.578125 44.964844 39.289062 44.941406 40 C 41.316406 40.179688 37.035156 39.285156 36.085938 36.742188 C 38.871094 37.738281 41.839844 38.125 44.785156 37.871094 Z M 36.277344 20.582031 C 36.742188 21.890625 37.398438 23.125 38.230469 24.238281 C 38.6875 24.683594 39.570312 25.222656 39.132812 26.457031 C 38.820312 26.9375 38.375 27.308594 37.847656 27.527344 C 36.269531 27.992188 32.585938 27.621094 33.832031 25.652344 C 35.136719 25.710938 36.894531 26.5 37.871094 25.550781 C 37.683594 25.246094 37.453125 24.871094 37.226562 24.449219 C 36.226562 25.082031 33.480469 25.109375 33.480469 23.492188 C 33.480469 21.789062 36.15625 21.425781 36.15625 21.425781 L 36.179688 21.472656 C 36.148438 21.167969 36.179688 20.863281 36.273438 20.574219 Z M 29.828125 14.726562 C 32.21875 13.097656 33.429688 14.027344 34.027344 15.101562 C 34.339844 15.226562 34.582031 15.480469 34.6875 15.800781 C 34.796875 16.121094 34.753906 16.472656 34.574219 16.757812 C 31.261719 15.984375 29.613281 18.144531 28.605469 20.386719 C 28.347656 20.855469 28.335938 20.523438 28.1875 20.113281 C 28.128906 20.03125 28.085938 19.941406 28.0625 19.84375 C 28.015625 19.753906 27.953125 19.671875 27.878906 19.601562 C 27.398438 19.105469 27.148438 16.550781 29.828125 14.726562 Z M 29.828125 14.726562 "/>
<path style=" stroke:none;fill-rule:nonzero;fill:rgb(20%,31.372549%,38.039216%);fill-opacity:1;" d="M 12.566406 58.558594 L 30.070312 58.558594 C 29.992188 58.289062 29.914062 58.023438 29.835938 57.773438 C 29.410156 56.5 29.09375 55.199219 28.882812 53.875 C 26.738281 52.945312 24.671875 51.839844 22.710938 50.566406 C 22.539062 50.40625 22.378906 50.234375 22.230469 50.050781 L 11.699219 54.757812 C 11.699219 54.757812 12.074219 56.265625 12.566406 58.558594 Z M 12.566406 58.558594 "/>
<path style=" stroke:none;fill-rule:nonzero;fill:rgb(42.745098%,41.960784%,42.745098%);fill-opacity:1;" d="M 18.867188 14 C 19.167969 13.90625 19.484375 13.847656 19.800781 13.824219 C 20.292969 13.890625 20.796875 13.910156 21.292969 13.882812 C 22.28125 13.636719 23.117188 11.421875 23.863281 10.59375 C 24.464844 10.042969 25.089844 9.523438 25.746094 9.042969 C 23.015625 9.984375 20.621094 11.707031 18.867188 14 Z M 18.867188 14 "/>
<path style=" stroke:none;fill-rule:nonzero;fill:rgb(42.745098%,41.960784%,42.745098%);fill-opacity:1;" d="M 14.355469 25.171875 C 15.636719 24.492188 17.175781 24.507812 18.445312 25.214844 C 19.714844 25.917969 20.542969 27.21875 20.644531 28.664062 C 22.03125 28.628906 21.160156 26.933594 20.910156 25.839844 C 20.175781 22.625 21.886719 19.160156 21.296875 16.117188 C 13.5625 17.273438 14 23.210938 14.355469 25.171875 Z M 14.355469 25.171875 "/>
<path style=" stroke:none;fill-rule:nonzero;fill:rgb(86.27451%,85.098039%,84.705882%);fill-opacity:1;" d="M 26.496094 7.703125 C 22.859375 8.734375 18.195312 11.378906 16.699219 14.648438 C 17.4375 14.488281 18.160156 14.269531 18.867188 14 C 20.621094 11.707031 23.015625 9.984375 25.746094 9.042969 C 25.859375 8.9375 25.964844 8.828125 26.0625 8.710938 C 26.449219 8.523438 27.015625 8.539062 27.039062 7.960938 C 26.871094 7.78125 26.695312 7.644531 26.496094 7.703125 Z M 26.496094 7.703125 "/>
<path style=" stroke:none;fill-rule:nonzero;fill:rgb(86.27451%,85.098039%,84.705882%);fill-opacity:1;" d="M 15 17.96875 C 13.398438 19.738281 13.726562 23.054688 13.925781 25.410156 C 14.066406 25.324219 14.210938 25.246094 14.359375 25.171875 C 14 23.214844 13.570312 17.273438 21.300781 16.117188 C 21.238281 15.78125 21.140625 15.453125 21.019531 15.132812 C 18.71875 15.253906 16.558594 16.273438 15 17.96875 Z M 15 17.96875 "/>
<path style=" stroke:none;fill-rule:nonzero;fill:rgb(96.862745%,89.411765%,80.392157%);fill-opacity:1;" d="M 20.824219 36.507812 C 20.789062 36.039062 20.445312 35.652344 19.984375 35.570312 C 20.652344 36.90625 18.953125 37.324219 18.785156 38.28125 C 18.804688 38.84375 18.890625 39.398438 19.035156 39.945312 C 19.625 42.328125 20.601562 44.601562 21.925781 46.675781 C 23.023438 48.027344 24.628906 48.871094 26.363281 49.007812 C 21.304688 44.835938 20.945312 37.347656 20.824219 36.507812 Z M 20.824219 36.507812 "/>
<path style=" stroke:none;fill-rule:nonzero;fill:rgb(96.862745%,89.411765%,80.392157%);fill-opacity:1;" d="M 43.050781 32.675781 C 43.03125 32.078125 42.625 31.5625 42.050781 31.398438 C 41.472656 31.234375 41.136719 32.410156 40.953125 33.425781 C 41.039062 33.664062 41.105469 33.90625 41.152344 34.152344 C 41.742188 33.605469 42.375 33.113281 43.050781 32.675781 Z M 43.050781 32.675781 "/>
<path style=" stroke:none;fill-rule:nonzero;fill:rgb(96.862745%,89.411765%,80.392157%);fill-opacity:1;" d="M 48.6875 23.488281 C 48.503906 25.257812 50.886719 23.855469 51.242188 23.730469 L 51.15625 23.160156 C 50.929688 22.574219 50.789062 21.960938 50.738281 21.335938 C 49.6875 21.574219 48.878906 22.421875 48.6875 23.488281 Z M 48.6875 23.488281 "/>
<path style=" stroke:none;fill-rule:nonzero;fill:rgb(96.862745%,89.411765%,80.392157%);fill-opacity:1;" d="M 33.476562 23.488281 C 33.476562 25.105469 36.21875 25.078125 37.226562 24.445312 C 36.683594 23.53125 36.328125 22.519531 36.175781 21.46875 L 36.15625 21.421875 C 36.15625 21.421875 33.476562 21.785156 33.476562 23.488281 Z M 33.476562 23.488281 "/>
<path style=" stroke:none;fill-rule:nonzero;fill:rgb(96.862745%,89.411765%,80.392157%);fill-opacity:1;" d="M 14.382812 29.769531 C 14.308594 29.851562 14.226562 29.925781 14.132812 29.988281 C 14.183594 29.394531 14.445312 28.839844 14.875 28.425781 C 14.96875 28.332031 15.078125 28.257812 15.199219 28.199219 C 15.691406 27.960938 16.257812 27.9375 16.765625 28.136719 C 17.648438 28.355469 18.5 28.691406 19.292969 29.136719 C 18.90625 27.808594 18.246094 26.609375 16.878906 26.460938 C 15.765625 26.367188 14.667969 26.738281 13.835938 27.480469 C 13.003906 28.222656 12.511719 29.273438 12.476562 30.386719 C 12.476562 32.316406 13.203125 34.175781 14.507812 35.601562 C 13.289062 33.515625 13.941406 31.84375 14.382812 29.769531 Z M 14.382812 29.769531 "/>
<path style=" stroke:none;fill-rule:nonzero;fill:rgb(96.862745%,89.411765%,80.392157%);fill-opacity:1;" d="M 34.328125 8.886719 C 38.316406 7.84375 42.523438 7.996094 46.425781 9.328125 C 46.113281 9.085938 45.785156 8.867188 45.445312 8.671875 C 41.664062 6.539062 35.273438 4.9375 31.242188 6.941406 C 28.003906 8.554688 23.617188 11.230469 22.125 14.621094 C 22.738281 16.242188 22.824219 18.015625 22.371094 19.6875 C 24.140625 14.207031 28.699219 10.09375 34.328125 8.886719 Z M 34.328125 8.886719 "/>
<path style=" stroke:none;fill-rule:nonzero;fill:rgb(96.862745%,89.411765%,80.392157%);fill-opacity:1;" d="M 46.375 15.457031 C 46.386719 15.792969 46.472656 16.125 46.621094 16.429688 C 46.621094 16.429688 46.792969 16.230469 47.078125 15.964844 C 47.140625 14.496094 48.808594 13.660156 50.742188 14.234375 C 50.300781 13.660156 49.851562 13.054688 49.382812 12.457031 C 47.746094 12.503906 46.429688 13.820312 46.375 15.457031 Z M 46.375 15.457031 "/>
<path style=" stroke:none;fill-rule:nonzero;fill:rgb(96.862745%,89.411765%,80.392157%);fill-opacity:1;" d="M 28.183594 20.117188 C 28.332031 20.515625 28.347656 20.855469 28.605469 20.386719 C 28.433594 20.351562 28.285156 20.253906 28.183594 20.117188 Z M 28.183594 20.117188 "/>
<path style=" stroke:none;fill-rule:nonzero;fill:rgb(96.862745%,89.411765%,80.392157%);fill-opacity:1;" d="M 28.0625 19.84375 C 28.007812 19.328125 28.085938 18.804688 28.292969 18.328125 C 29.117188 16.296875 31.042969 14.925781 33.230469 14.816406 C 33.515625 14.863281 33.785156 14.960938 34.03125 15.105469 C 33.433594 14.027344 32.230469 13.105469 29.832031 14.726562 C 27.15625 16.554688 27.398438 19.109375 27.886719 19.597656 C 27.957031 19.671875 28.015625 19.753906 28.0625 19.84375 Z M 28.0625 19.84375 "/>
<path style=" stroke:none;fill-rule:nonzero;fill:rgb(28.627451%,44.705882%,54.509804%);fill-opacity:1;" d="M 11.699219 54.757812 L 22.230469 50.050781 C 21.457031 49.15625 20.070312 47.453125 19.828125 47.539062 C 15.789062 49.335938 12.011719 51.679688 8.609375 54.507812 C 9.222656 55.828125 9.761719 57.179688 10.230469 58.558594 L 12.566406 58.558594 C 12.074219 56.265625 11.699219 54.757812 11.699219 54.757812 Z M 11.699219 54.757812 "/>
<path style=" stroke:none;fill-rule:nonzero;fill:rgb(20%,31.372549%,38.039216%);fill-opacity:1;" d="M 54 58.613281 C 54.433594 57.261719 54.800781 55.886719 55.097656 54.496094 C 55.167969 54.136719 55.308594 53.546875 55.40625 52.984375 L 49.636719 48.699219 C 50.75 51.160156 50.839844 53.964844 49.894531 56.496094 C 50.097656 57.242188 50.804688 57.527344 51.097656 58.199219 C 51.027344 58.316406 50.960938 58.4375 50.894531 58.554688 L 53.847656 58.554688 C 53.902344 58.5625 53.957031 58.582031 54 58.613281 Z M 54 58.613281 "/>
<path style=" stroke:none;fill-rule:nonzero;fill:rgb(20%,31.372549%,38.039216%);fill-opacity:1;" d="M 48.882812 56.148438 C 49.046875 55.917969 49.160156 55.660156 49.226562 55.386719 C 49.160156 55.660156 49.046875 55.917969 48.882812 56.148438 Z M 48.882812 56.148438 "/>
<path style=" stroke:none;fill-rule:nonzero;fill:rgb(20%,31.372549%,38.039216%);fill-opacity:1;" d="M 47.234375 47.890625 C 47.550781 47.726562 47.90625 47.652344 48.261719 47.679688 L 47.785156 47.324219 C 47.578125 47.488281 47.390625 47.679688 47.234375 47.890625 Z M 47.234375 47.890625 "/>
<path style=" stroke:none;fill-rule:nonzero;fill:rgb(28.627451%,44.705882%,54.509804%);fill-opacity:1;" d="M 55.511719 51.757812 C 55.363281 50.683594 53.910156 49.886719 53.167969 49.226562 C 51.800781 48 50.945312 46.921875 49.523438 45.773438 C 49.015625 46.367188 48.429688 46.886719 47.785156 47.324219 L 48.261719 47.679688 C 48.855469 47.777344 49.367188 48.15625 49.632812 48.699219 L 55.398438 52.984375 C 55.492188 52.582031 55.527344 52.171875 55.511719 51.757812 Z M 55.511719 51.757812 "/>
<path style=" stroke:none;fill-rule:nonzero;fill:rgb(100%,100%,100%);fill-opacity:1;" d="M 41.144531 58.398438 C 41.144531 58.449219 41.152344 58.503906 41.160156 58.550781 L 42.121094 58.550781 C 42.121094 58.183594 42.417969 57.886719 42.785156 57.886719 C 43.152344 57.886719 43.453125 58.183594 43.453125 58.550781 L 45 58.550781 L 45 58.492188 C 44.453125 58.203125 43.253906 57.582031 42.601562 57.304688 C 41.753906 56.949219 41.144531 58.398438 41.144531 58.398438 Z M 41.144531 58.398438 "/>
<path style=" stroke:none;fill-rule:nonzero;fill:rgb(86.27451%,85.098039%,84.705882%);fill-opacity:1;" d="M 41.144531 58.398438 C 41.144531 58.398438 41.742188 56.941406 42.605469 57.304688 C 43.246094 57.578125 44.445312 58.203125 45.003906 58.488281 C 45.023438 58.050781 45.042969 57.609375 45.070312 57.171875 C 43.835938 57.246094 43.148438 56.050781 42.285156 55.960938 C 41.527344 55.878906 40.882812 56.828125 39.902344 56.417969 C 39.679688 56.664062 39.472656 56.9375 39.242188 57.179688 C 39.601562 57.613281 39.925781 58.070312 40.222656 58.550781 L 41.175781 58.550781 C 41.160156 58.5 41.148438 58.449219 41.144531 58.398438 Z M 41.144531 58.398438 "/>
<path style=" stroke:none;fill-rule:nonzero;fill:rgb(100%,100%,100%);fill-opacity:1;" d="M 29.023438 50.339844 C 27.476562 50.332031 25.941406 50.0625 24.484375 49.539062 C 24.367188 49.648438 24.304688 49.804688 24.3125 49.964844 C 24.320312 50.128906 24.394531 50.277344 24.519531 50.378906 C 25.882812 50.972656 27.324219 51.359375 28.796875 51.535156 C 28.941406 51.152344 29.019531 50.746094 29.023438 50.339844 Z M 29.023438 50.339844 "/>
<path style=" stroke:none;fill-rule:nonzero;fill:rgb(86.27451%,85.098039%,84.705882%);fill-opacity:1;" d="M 28.714844 52.136719 C 28.714844 51.933594 28.742188 51.734375 28.796875 51.539062 C 27.320312 51.363281 25.878906 50.972656 24.515625 50.382812 C 25.730469 51.339844 27.179688 51.945312 28.714844 52.136719 Z M 28.714844 52.136719 "/>
<path style=" stroke:none;fill-rule:nonzero;fill:rgb(82.745098%,21.960784%,20%);fill-opacity:1;" d="M 49.226562 55.386719 C 49.359375 54.816406 49.410156 54.230469 49.371094 53.644531 C 49.328125 52.714844 49.195312 51.792969 48.972656 50.890625 C 48.296875 50.808594 47.617188 50.839844 46.953125 50.988281 C 46.355469 51.109375 45.734375 51.230469 45.617188 51.960938 C 45.496094 52.691406 45.859375 53.058594 45.492188 53.664062 C 45.128906 54.273438 44.519531 53.910156 43.910156 54.265625 C 43.496094 54.515625 43.761719 55.15625 43.96875 55.542969 C 45.585938 55.910156 47.234375 56.109375 48.886719 56.140625 C 49.046875 55.914062 49.164062 55.65625 49.226562 55.386719 Z M 49.226562 55.386719 "/>
<path style=" stroke:none;fill-rule:nonzero;fill:rgb(82.745098%,21.960784%,20%);fill-opacity:1;" d="M 31.125 58.4375 C 31.15625 58.523438 31.191406 58.613281 31.21875 58.695312 C 31.246094 58.773438 31.277344 58.878906 31.300781 58.972656 L 31.285156 58.738281 Z M 31.125 58.4375 "/>
<path style=" stroke:none;fill-rule:nonzero;fill:rgb(82.745098%,21.960784%,20%);fill-opacity:1;" d="M 39.125 55.851562 C 39.140625 55.496094 39.152344 55.148438 39.167969 54.796875 C 38.53125 54.992188 37.847656 54.941406 37.246094 54.648438 C 35.375 53.625 37.148438 53.929688 36.484375 52.570312 C 35.722656 52.167969 34.890625 51.921875 34.035156 51.84375 C 31.578125 51.84375 30.636719 51.347656 30.898438 54.179688 C 31.039062 55.699219 31.160156 57.21875 31.28125 58.738281 C 31.480469 59.117188 31.660156 59.453125 31.804688 59.738281 C 33.089844 59.617188 34.335938 59.234375 35.472656 58.621094 C 36.738281 57.765625 37.960938 56.839844 39.125 55.851562 Z M 39.125 55.851562 "/>
<path style=" stroke:none;fill-rule:nonzero;fill:rgb(82.745098%,21.960784%,20%);fill-opacity:1;" d="M 40.054688 54.398438 C 40.097656 54.578125 40.140625 54.777344 40.183594 55.019531 C 40.675781 55.285156 41.277344 55.230469 41.714844 54.882812 C 42.152344 54.53125 42.34375 53.957031 42.195312 53.417969 C 42.046875 52.878906 41.59375 52.476562 41.039062 52.398438 C 41.175781 53.207031 40.777344 54.015625 40.054688 54.398438 Z M 40.054688 54.398438 "/>
<path style=" stroke:none;fill-rule:nonzero;fill:rgb(93.72549%,23.921569%,22.745098%);fill-opacity:1;" d="M 43.90625 54.273438 C 44.507812 53.90625 45.125 54.273438 45.488281 53.675781 C 45.851562 53.074219 45.488281 52.699219 45.609375 51.96875 C 45.730469 51.238281 46.339844 51.117188 46.949219 50.996094 C 47.609375 50.847656 48.292969 50.816406 48.964844 50.898438 C 48.886719 50.398438 48.640625 49.9375 48.269531 49.59375 C 46.777344 48.722656 44.15625 51.242188 42.941406 51.78125 L 42.824219 51.824219 C 43.007812 52.175781 43.125 52.550781 43.175781 52.941406 C 43.445312 52.875 43.722656 52.847656 44 52.859375 C 44.183594 52.867188 44.371094 52.886719 44.550781 52.925781 C 44.640625 52.941406 44.730469 52.964844 44.816406 52.988281 C 44.984375 53.035156 45.148438 53.097656 45.304688 53.171875 C 44.792969 53.191406 44.289062 53.257812 43.789062 53.371094 C 43.648438 53.414062 43.511719 53.476562 43.390625 53.5625 C 43.335938 54.160156 43.3125 54.761719 43.320312 55.363281 C 43.53125 55.421875 43.746094 55.476562 43.964844 55.53125 C 43.753906 55.164062 43.492188 54.523438 43.90625 54.273438 Z M 43.90625 54.273438 "/>
<path style=" stroke:none;fill-rule:nonzero;fill:rgb(93.72549%,23.921569%,22.745098%);fill-opacity:1;" d="M 31.300781 58.96875 C 31.402344 59.335938 31.492188 59.664062 31.808594 59.738281 C 31.664062 59.453125 31.480469 59.113281 31.285156 58.738281 Z M 31.300781 58.96875 "/>
<path style=" stroke:none;fill-rule:nonzero;fill:rgb(93.72549%,23.921569%,22.745098%);fill-opacity:1;" d="M 30.898438 54.179688 C 30.640625 51.347656 31.578125 51.839844 34.035156 51.839844 C 34.890625 51.917969 35.722656 52.167969 36.484375 52.570312 C 37.148438 53.925781 35.375 53.625 37.246094 54.644531 C 37.847656 54.9375 38.53125 54.992188 39.167969 54.792969 L 39.167969 54.667969 C 38.59375 54.378906 37.972656 54.183594 37.335938 54.089844 C 37.089844 54.050781 36.84375 54.027344 36.59375 54.015625 C 36.78125 53.925781 36.976562 53.855469 37.175781 53.804688 C 37.804688 53.707031 38.414062 53.515625 38.988281 53.242188 C 38.988281 53.085938 39 52.925781 39.007812 52.769531 C 38.871094 52.757812 38.738281 52.742188 38.605469 52.714844 C 38.488281 52.695312 38.367188 52.664062 38.253906 52.628906 C 38.046875 52.5625 37.851562 52.476562 37.664062 52.375 C 37.308594 52.175781 37.003906 51.941406 36.613281 51.730469 C 35.101562 50.917969 33.480469 50.324219 31.796875 49.96875 C 29.957031 49.617188 29.941406 52.179688 30.019531 54.066406 C 30.019531 54.265625 30.035156 54.449219 30.042969 54.625 C 30.214844 55.941406 30.582031 57.222656 31.132812 58.425781 L 31.289062 58.726562 C 31.164062 57.21875 31.039062 55.699219 30.898438 54.179688 Z M 30.898438 54.179688 "/>
<path style=" stroke:none;fill-rule:nonzero;fill:rgb(93.72549%,23.921569%,22.745098%);fill-opacity:1;" d="M 41.039062 52.398438 C 40.621094 52.410156 40.210938 52.546875 39.875 52.800781 C 39.847656 53.074219 39.851562 53.351562 39.890625 53.625 C 39.910156 53.78125 39.945312 53.933594 39.984375 54.101562 L 40.046875 54.363281 L 40.046875 54.394531 C 40.773438 54.011719 41.171875 53.210938 41.039062 52.398438 Z M 41.039062 52.398438 "/>
<path style=" stroke:none;fill-rule:nonzero;fill:rgb(13.72549%,12.156863%,12.54902%);fill-opacity:1;" d="M 28.292969 18.328125 C 28.085938 18.804688 28.007812 19.328125 28.0625 19.84375 C 28.085938 19.941406 28.128906 20.035156 28.1875 20.117188 C 28.289062 20.253906 28.4375 20.351562 28.605469 20.386719 C 29.605469 18.148438 31.261719 15.988281 34.574219 16.761719 C 34.753906 16.472656 34.796875 16.125 34.6875 15.804688 C 34.582031 15.484375 34.339844 15.226562 34.027344 15.105469 C 33.78125 14.960938 33.511719 14.863281 33.226562 14.816406 C 31.039062 14.929688 29.113281 16.296875 28.292969 18.328125 Z M 28.292969 18.328125 "/>
<path style=" stroke:none;fill-rule:nonzero;fill:rgb(13.72549%,12.156863%,12.54902%);fill-opacity:1;" d="M 48.503906 25.253906 C 48.441406 27.902344 52.601562 26.597656 53.234375 25.121094 C 52.339844 23.65625 51.558594 22.125 50.890625 20.542969 L 50.734375 20.542969 C 50.714844 20.808594 50.714844 21.074219 50.734375 21.34375 C 50.785156 21.96875 50.925781 22.582031 51.152344 23.167969 C 51.34375 23.679688 51.5625 24.167969 51.753906 24.679688 C 50.957031 25.175781 49.398438 24.859375 48.503906 25.253906 Z M 48.503906 25.253906 "/>
<path style=" stroke:none;fill-rule:nonzero;fill:rgb(13.72549%,12.156863%,12.54902%);fill-opacity:1;" d="M 37.867188 25.546875 C 36.890625 26.492188 35.132812 25.707031 33.828125 25.644531 C 32.582031 27.617188 36.265625 27.984375 37.84375 27.519531 C 38.371094 27.300781 38.816406 26.929688 39.128906 26.453125 C 39.566406 25.21875 38.683594 24.679688 38.226562 24.234375 C 37.394531 23.121094 36.738281 21.886719 36.273438 20.574219 C 36.179688 20.863281 36.144531 21.164062 36.175781 21.464844 C 36.324219 22.519531 36.683594 23.53125 37.222656 24.445312 C 37.453125 24.863281 37.679688 25.242188 37.867188 25.546875 Z M 37.867188 25.546875 "/>
<path style=" stroke:none;fill-rule:nonzero;fill:rgb(13.72549%,12.156863%,12.54902%);fill-opacity:1;" d="M 41.210938 36.628906 C 44.429688 36.820312 47.609375 35.824219 50.140625 33.828125 C 50.046875 33.230469 50.863281 32.148438 50.636719 31.25 C 50.558594 30.941406 49.851562 30.488281 49.425781 30.023438 C 47.402344 27.957031 45.6875 25.605469 44.339844 23.050781 C 44.230469 22.804688 44.167969 21.449219 43.433594 21.988281 C 43.347656 25.273438 45.785156 27.988281 47.605469 30.191406 C 48.492188 31.261719 49.566406 31.871094 48.578125 33.535156 C 46.980469 34.136719 44.414062 35.875 42.203125 35.492188 C 41.445312 35.363281 41.285156 34.765625 41.15625 34.15625 C 41.109375 33.910156 41.042969 33.667969 40.957031 33.433594 C 40.929688 33.363281 40.898438 33.296875 40.863281 33.230469 C 40.132812 34.296875 40.28125 35.734375 41.210938 36.628906 Z M 41.210938 36.628906 "/>
<path style=" stroke:none;fill-rule:nonzero;fill:rgb(13.72549%,12.156863%,12.54902%);fill-opacity:1;" d="M 15.199219 28.199219 C 15.085938 28.261719 14.980469 28.335938 14.882812 28.421875 C 14.453125 28.835938 14.191406 29.390625 14.140625 29.984375 C 14.234375 29.921875 14.316406 29.847656 14.390625 29.765625 C 14.699219 29.453125 15.019531 29.050781 15.59375 29.332031 C 14.945312 30.773438 15.089844 32.445312 15.972656 33.757812 C 15.972656 32.292969 15.738281 29.785156 16.988281 29.859375 C 17.867188 29.910156 18.042969 31.785156 18.789062 32.210938 C 19.234375 30.535156 18.363281 28.789062 16.757812 28.140625 C 16.25 27.945312 15.6875 27.964844 15.199219 28.199219 Z M 15.199219 28.199219 "/>
<path style=" stroke:none;fill-rule:nonzero;fill:rgb(13.72549%,12.156863%,12.54902%);fill-opacity:1;" d="M 45.734375 37.75 C 45.640625 38.457031 45.640625 39.171875 45.734375 39.875 C 48.421875 39.671875 50.742188 37.914062 51.660156 35.378906 C 49.851562 36.535156 47.84375 37.339844 45.734375 37.75 Z M 45.734375 37.75 "/>
<path style=" stroke:none;fill-rule:nonzero;fill:rgb(13.72549%,12.156863%,12.54902%);fill-opacity:1;" d="M 44.941406 40 C 44.964844 39.285156 44.914062 38.570312 44.785156 37.867188 C 41.839844 38.125 38.871094 37.738281 36.085938 36.742188 C 37.035156 39.289062 41.316406 40.183594 44.941406 40 Z M 44.941406 40 "/>
<path style=" stroke:none;fill-rule:nonzero;fill:rgb(13.72549%,12.156863%,12.54902%);fill-opacity:1;" d="M 35.691406 38.78125 C 33.863281 38.78125 35.40625 39.800781 35.714844 40.199219 C 36.367188 41.316406 37.238281 42.289062 38.285156 43.054688 C 40.5 43.828125 42.914062 43.835938 45.136719 43.082031 C 45.632812 42.824219 46.015625 42.390625 46.207031 41.863281 C 42.050781 41.964844 37.125 42.378906 35.691406 38.78125 Z M 35.691406 38.78125 "/>
<path style=" stroke:none;fill-rule:nonzero;fill:rgb(50.588235%,69.019608%,76.862745%);fill-opacity:1;" d="M 49.921875 58.558594 C 49.449219 57.804688 48.699219 57.265625 47.835938 57.054688 C 47.214844 56.929688 46.570312 57.011719 46 57.292969 C 45.984375 57.695312 45.964844 58.125 45.9375 58.558594 Z M 49.921875 58.558594 "/>
<path style=" stroke:none;fill-rule:nonzero;fill:rgb(94.117647%,83.921569%,71.764706%);fill-opacity:1;" d="M 43.941406 49.496094 C 42.570312 49.621094 40.957031 50.242188 39.4375 50.335938 C 39.300781 50.335938 39.160156 50.347656 39.027344 50.347656 C 38.890625 50.347656 38.753906 50.347656 38.625 50.328125 C 38.359375 50.304688 38.097656 50.253906 37.84375 50.175781 C 37.714844 50.136719 37.589844 50.089844 37.464844 50.035156 C 37.464844 50.140625 37.324219 50.101562 37.300781 50.1875 C 37.472656 50.320312 37.636719 50.441406 37.796875 50.546875 C 37.957031 50.652344 38.113281 50.746094 38.273438 50.832031 C 38.574219 50.996094 38.890625 51.121094 39.222656 51.210938 C 39.753906 51.34375 40.304688 51.40625 40.855469 51.390625 C 41.054688 51.390625 41.277344 51.390625 41.507812 51.375 C 42.339844 50.769531 43.074219 50.0625 43.941406 49.496094 Z M 43.941406 49.496094 "/>
<path style=" stroke:none;fill-rule:nonzero;fill:rgb(50.588235%,69.019608%,76.862745%);fill-opacity:1;" d="M 38.171875 58.097656 L 37.46875 58.5625 L 38.523438 58.5625 C 38.410156 58.402344 38.292969 58.246094 38.171875 58.097656 Z M 38.171875 58.097656 "/>
<path style=" stroke:none;fill-rule:nonzero;fill:rgb(13.72549%,12.156863%,12.54902%);fill-opacity:1;" d="M 9.363281 59.539062 L 9.363281 58.867188 C 9.363281 58.699219 9.5 58.5625 9.667969 58.5625 L 10.234375 58.5625 C 9.765625 57.183594 9.226562 55.832031 8.613281 54.511719 C 12.015625 51.683594 15.792969 49.335938 19.835938 47.539062 C 20.070312 47.445312 21.457031 49.15625 22.234375 50.054688 C 22.382812 50.238281 22.542969 50.410156 22.714844 50.566406 C 24.675781 51.839844 26.742188 52.949219 28.886719 53.878906 C 29.097656 55.199219 29.414062 56.503906 29.839844 57.773438 C 29.917969 58.027344 29.996094 58.292969 30.074219 58.5625 L 30.398438 58.5625 C 30.570312 58.5625 30.707031 58.699219 30.707031 58.867188 L 30.707031 59.183594 L 30.984375 59.183594 C 31.152344 59.183594 31.289062 59.320312 31.289062 59.488281 L 31.289062 60 L 34.671875 60 L 34.671875 59.488281 C 34.671875 59.320312 34.808594 59.183594 34.976562 59.183594 L 36.539062 59.183594 L 36.539062 58.867188 C 36.539062 58.699219 36.675781 58.5625 36.84375 58.5625 L 37.476562 58.5625 L 38.179688 58.097656 C 38.300781 58.246094 38.417969 58.402344 38.53125 58.5625 L 40.21875 58.5625 C 39.921875 58.085938 39.597656 57.625 39.238281 57.191406 C 39.46875 56.949219 39.675781 56.679688 39.898438 56.429688 C 40.882812 56.84375 41.523438 55.890625 42.28125 55.972656 C 43.144531 56.0625 43.832031 57.261719 45.066406 57.183594 C 45.039062 57.621094 45.019531 58.0625 45 58.503906 L 45 58.5625 L 45.949219 58.5625 C 45.972656 58.128906 45.992188 57.703125 46.011719 57.296875 C 46.578125 57.015625 47.222656 56.933594 47.847656 57.058594 C 48.710938 57.269531 49.457031 57.808594 49.929688 58.5625 L 50.890625 58.5625 C 50.960938 58.445312 51.03125 58.324219 51.09375 58.207031 C 50.804688 57.535156 50.101562 57.253906 49.890625 56.507812 C 50.835938 53.972656 50.746094 51.167969 49.632812 48.707031 C 49.367188 48.164062 48.855469 47.785156 48.261719 47.6875 C 47.902344 47.660156 47.546875 47.730469 47.230469 47.898438 C 47.390625 47.683594 47.574219 47.496094 47.78125 47.332031 C 48.425781 46.894531 49.011719 46.371094 49.519531 45.78125 C 50.945312 46.925781 51.800781 48.003906 53.167969 49.230469 C 53.90625 49.894531 55.367188 50.691406 55.511719 51.761719 C 55.53125 52.175781 55.492188 52.585938 55.402344 52.988281 C 55.300781 53.550781 55.164062 54.140625 55.09375 54.503906 C 54.796875 55.890625 54.433594 57.261719 54 58.613281 C 54.089844 58.667969 54.144531 58.765625 54.144531 58.867188 L 54.144531 60 L 54.878906 60 C 55.394531 58.382812 55.902344 56.730469 56.410156 55.023438 C 56.992188 53.632812 57.316406 52.152344 57.367188 50.648438 C 57.210938 49.414062 55.289062 48.117188 54.273438 47.140625 C 53.710938 46.597656 51.089844 44.605469 50.9375 43.859375 C 50.785156 43.113281 52.007812 41.503906 52.398438 40.6875 C 52.90625 39.53125 53.324219 38.335938 53.640625 37.113281 C 55.703125 29.859375 55.914062 19.890625 52.960938 13.929688 C 51.339844 11.277344 49.234375 8.953125 46.761719 7.070312 C 42.160156 3.589844 33.636719 3.203125 28.085938 5.246094 C 26.566406 5.742188 25.09375 6.367188 23.683594 7.125 C 20.046875 9.257812 16.1875 10.683594 15.109375 14.980469 C 12.453125 16.179688 11.652344 19.578125 11.785156 23.515625 C 11.964844 24.320312 12.066406 25.144531 12.085938 25.96875 C 12.011719 26.339844 11.511719 26.808594 11.410156 27.046875 C 10.386719 30.132812 10.835938 33.515625 12.628906 36.230469 C 13.621094 37.707031 15.179688 38.710938 16.9375 39 C 17.019531 40.160156 17.320312 41.296875 17.828125 42.34375 C 18.171875 43.089844 19.441406 44.429688 18.972656 45.382812 C 18.0625 46.152344 17.058594 46.800781 15.980469 47.3125 C 13.664062 48.703125 11.980469 49.554688 9.851562 51.09375 C 8.464844 52.09375 6.304688 52.21875 6.648438 54.515625 C 7.0625 56.226562 7.605469 57.90625 8.265625 59.539062 C 8.316406 59.695312 8.371094 59.851562 8.425781 60.003906 L 9.367188 60.003906 Z M 26.0625 8.710938 C 25.964844 8.828125 25.859375 8.9375 25.746094 9.042969 C 25.089844 9.523438 24.464844 10.042969 23.863281 10.59375 C 23.117188 11.421875 22.285156 13.636719 21.292969 13.882812 C 20.796875 13.910156 20.292969 13.890625 19.800781 13.824219 C 19.484375 13.847656 19.167969 13.90625 18.867188 14 C 18.160156 14.273438 17.4375 14.488281 16.699219 14.648438 C 18.195312 11.378906 22.859375 8.734375 26.496094 7.703125 C 26.699219 7.648438 26.875 7.785156 27.039062 7.960938 C 27.019531 8.535156 26.449219 8.523438 26.0625 8.710938 Z M 21.292969 16.109375 C 21.894531 19.152344 20.171875 22.617188 20.910156 25.832031 C 21.160156 26.925781 22.03125 28.621094 20.640625 28.65625 C 20.539062 27.210938 19.710938 25.910156 18.445312 25.207031 C 17.175781 24.5 15.636719 24.484375 14.351562 25.164062 C 14.203125 25.234375 14.058594 25.316406 13.914062 25.402344 C 13.714844 23.046875 13.382812 19.730469 14.992188 17.960938 C 16.550781 16.265625 18.710938 15.246094 21.011719 15.125 C 21.136719 15.445312 21.230469 15.777344 21.292969 16.117188 Z M 14.507812 35.601562 C 13.199219 34.183594 12.472656 32.328125 12.464844 30.398438 C 12.5 29.285156 12.988281 28.234375 13.820312 27.492188 C 14.652344 26.75 15.753906 26.382812 16.863281 26.472656 C 18.230469 26.625 18.890625 27.820312 19.28125 29.148438 C 19.386719 29.523438 19.480469 29.90625 19.550781 30.28125 C 20.5625 30.335938 22.023438 30.238281 22.5 29.449219 C 22.433594 27.527344 21.539062 25.984375 21.601562 24.214844 C 21.734375 22.6875 21.996094 21.175781 22.375 19.691406 C 22.828125 18.019531 22.742188 16.246094 22.128906 14.625 C 23.625 11.234375 28.007812 8.5625 31.25 6.945312 C 35.269531 4.945312 41.664062 6.542969 45.449219 8.675781 C 45.792969 8.871094 46.121094 9.089844 46.429688 9.335938 C 47.542969 10.25 48.535156 11.300781 49.386719 12.460938 C 49.855469 13.058594 50.304688 13.660156 50.75 14.238281 C 48.816406 13.664062 47.148438 14.503906 47.085938 15.96875 C 47.078125 16.132812 47.089844 16.300781 47.117188 16.460938 C 48.917969 14.820312 51.972656 16.445312 52.878906 18.261719 C 53.628906 20.480469 53.96875 22.816406 53.878906 25.152344 C 54.324219 31.210938 52.820312 37.253906 49.589844 42.394531 C 48.878906 43.667969 47.957031 44.804688 46.859375 45.757812 C 44.007812 47.757812 39.675781 49.570312 35.964844 48.328125 C 31.0625 46.683594 28.835938 43.414062 26.140625 39.675781 C 26.472656 41.734375 27.511719 43.617188 29.085938 44.988281 C 30.265625 46.46875 31.75 47.683594 33.4375 48.542969 C 32.089844 48.226562 30.035156 48.128906 29.464844 49.34375 C 28.429688 49.289062 27.394531 49.179688 26.367188 49.019531 C 24.632812 48.882812 23.027344 48.039062 21.929688 46.6875 C 20.605469 44.617188 19.628906 42.34375 19.039062 39.957031 C 18.894531 39.414062 18.808594 38.855469 18.789062 38.292969 C 18.964844 37.339844 20.664062 36.921875 19.988281 35.585938 C 18.753906 35.570312 18.472656 36.707031 17.339844 36.820312 C 16.257812 36.878906 15.210938 36.425781 14.507812 35.601562 Z M 40.046875 54.359375 L 39.984375 54.097656 C 39.945312 53.933594 39.914062 53.78125 39.890625 53.621094 C 39.851562 53.347656 39.847656 53.070312 39.875 52.796875 C 40.210938 52.546875 40.621094 52.40625 41.039062 52.398438 C 41.59375 52.476562 42.050781 52.875 42.195312 53.414062 C 42.34375 53.957031 42.15625 54.53125 41.71875 54.878906 C 41.28125 55.226562 40.675781 55.28125 40.183594 55.019531 C 40.140625 54.777344 40.097656 54.574219 40.054688 54.398438 Z M 24.484375 49.523438 C 25.941406 50.046875 27.476562 50.316406 29.023438 50.320312 C 29.019531 50.730469 28.941406 51.136719 28.796875 51.523438 C 28.746094 51.71875 28.71875 51.917969 28.714844 52.121094 C 27.179688 51.929688 25.730469 51.316406 24.515625 50.359375 C 24.398438 50.253906 24.324219 50.109375 24.320312 49.953125 C 24.3125 49.796875 24.375 49.644531 24.484375 49.53125 Z M 39.21875 51.199219 C 38.886719 51.109375 38.570312 50.984375 38.269531 50.820312 C 38.113281 50.734375 37.953125 50.640625 37.792969 50.535156 C 37.628906 50.429688 37.46875 50.308594 37.296875 50.175781 C 37.320312 50.089844 37.457031 50.128906 37.460938 50.023438 C 37.585938 50.078125 37.710938 50.125 37.839844 50.164062 C 38.09375 50.242188 38.355469 50.292969 38.621094 50.316406 C 38.757812 50.328125 38.890625 50.335938 39.023438 50.335938 C 39.152344 50.339844 39.296875 50.335938 39.433594 50.324219 C 40.953125 50.230469 42.566406 49.609375 43.9375 49.484375 C 43.070312 50.050781 42.339844 50.757812 41.503906 51.363281 C 41.273438 51.375 41.054688 51.378906 40.847656 51.378906 C 40.300781 51.398438 39.75 51.339844 39.21875 51.210938 Z M 35.472656 58.613281 C 34.339844 59.226562 33.09375 59.605469 31.808594 59.730469 C 31.492188 59.65625 31.40625 59.328125 31.300781 58.960938 C 31.277344 58.867188 31.25 58.777344 31.21875 58.683594 C 31.1875 58.589844 31.15625 58.511719 31.125 58.425781 C 30.570312 57.222656 30.207031 55.941406 30.035156 54.625 C 30.035156 54.449219 30.019531 54.261719 30.011719 54.066406 C 29.933594 52.179688 29.949219 49.617188 31.789062 49.96875 C 33.46875 50.324219 35.09375 50.917969 36.605469 51.730469 C 36.992188 51.941406 37.300781 52.179688 37.65625 52.375 C 37.84375 52.476562 38.039062 52.5625 38.242188 52.628906 C 38.359375 52.664062 38.476562 52.695312 38.597656 52.714844 C 38.730469 52.742188 38.863281 52.757812 38.996094 52.769531 C 38.996094 52.925781 38.984375 53.085938 38.980469 53.242188 C 38.40625 53.515625 37.796875 53.707031 37.167969 53.804688 C 36.96875 53.855469 36.773438 53.925781 36.585938 54.015625 C 36.835938 54.027344 37.082031 54.050781 37.328125 54.089844 C 37.964844 54.183594 38.582031 54.378906 39.160156 54.667969 L 39.160156 54.792969 C 39.148438 55.144531 39.132812 55.496094 39.117188 55.847656 C 37.953125 56.839844 36.738281 57.765625 35.472656 58.621094 Z M 43.964844 55.539062 C 43.746094 55.488281 43.53125 55.433594 43.320312 55.371094 C 43.3125 54.769531 43.335938 54.171875 43.390625 53.570312 C 43.511719 53.488281 43.648438 53.421875 43.789062 53.382812 C 44.289062 53.269531 44.792969 53.203125 45.304688 53.183594 C 45.148438 53.105469 44.984375 53.042969 44.816406 52.996094 C 44.730469 52.972656 44.640625 52.953125 44.550781 52.933594 C 44.371094 52.894531 44.1875 52.867188 44 52.859375 C 43.726562 52.84375 43.453125 52.871094 43.1875 52.933594 C 43.136719 52.542969 43.015625 52.167969 42.835938 51.816406 L 42.949219 51.773438 C 44.167969 51.234375 46.785156 48.714844 48.28125 49.585938 C 48.652344 49.929688 48.898438 50.390625 48.976562 50.890625 C 49.199219 51.792969 49.332031 52.714844 49.375 53.644531 C 49.414062 54.230469 49.363281 54.816406 49.230469 55.386719 C 49.164062 55.660156 49.050781 55.917969 48.886719 56.148438 C 47.230469 56.117188 45.578125 55.914062 43.964844 55.546875 Z M 43.964844 55.539062 "/>
<path style=" stroke:none;fill-rule:nonzero;fill:rgb(96.862745%,89.411765%,80.392157%);fill-opacity:1;" d="M 35.058594 37.722656 C 33.828125 37.125 32.949219 37.453125 32.789062 37.667969 C 32.484375 38.066406 33.113281 40.28125 33.113281 40.28125 L 33.714844 40.402344 C 33.601562 37.96875 35.058594 37.722656 35.058594 37.722656 Z M 35.058594 37.722656 "/>
<path style=" stroke:none;fill-rule:nonzero;fill:rgb(11.372549%,9.803922%,9.803922%);fill-opacity:1;" d="M 42.785156 57.921875 C 42.429688 57.921875 42.136719 58.203125 42.121094 58.558594 L 43.453125 58.558594 C 43.4375 58.203125 43.144531 57.921875 42.785156 57.921875 Z M 42.785156 57.921875 "/>
<path style=" stroke:none;fill-rule:nonzero;fill:rgb(13.72549%,12.156863%,12.54902%);fill-opacity:1;" d="M 31.285156 59.488281 C 31.285156 59.320312 31.148438 59.183594 30.976562 59.183594 L 30.699219 59.183594 L 30.699219 59.539062 C 30.699219 59.707031 30.5625 59.84375 30.394531 59.84375 L 9.667969 59.84375 C 9.5 59.84375 9.363281 59.707031 9.363281 59.539062 L 9.363281 60 L 31.285156 60 Z M 31.285156 59.488281 "/>
<path style=" stroke:none;fill-rule:nonzero;fill:rgb(13.72549%,12.156863%,12.54902%);fill-opacity:1;" d="M 53.835938 59.84375 L 36.835938 59.84375 C 36.667969 59.84375 36.53125 59.707031 36.53125 59.539062 L 36.53125 59.183594 L 34.96875 59.183594 C 34.800781 59.183594 34.664062 59.320312 34.664062 59.488281 L 34.664062 60 L 54.136719 60 L 54.136719 59.539062 C 54.136719 59.707031 54.003906 59.84375 53.835938 59.84375 Z M 53.835938 59.84375 "/>
<path style=" stroke:none;fill-rule:nonzero;fill:rgb(13.72549%,12.156863%,12.54902%);fill-opacity:1;" d="M 9.667969 59.84375 L 30.398438 59.84375 C 30.570312 59.84375 30.707031 59.707031 30.707031 59.539062 L 30.707031 58.867188 C 30.707031 58.699219 30.570312 58.5625 30.398438 58.5625 L 9.667969 58.5625 C 9.5 58.5625 9.363281 58.699219 9.363281 58.867188 L 9.363281 59.539062 C 9.363281 59.707031 9.5 59.84375 9.667969 59.84375 Z M 9.667969 59.84375 "/>
<path style=" stroke:none;fill-rule:nonzero;fill:rgb(13.72549%,12.156863%,12.54902%);fill-opacity:1;" d="M 36.53125 59.539062 C 36.53125 59.707031 36.667969 59.84375 36.839844 59.84375 L 53.839844 59.84375 C 54.007812 59.84375 54.144531 59.707031 54.144531 59.539062 L 54.144531 58.867188 C 54.144531 58.765625 54.089844 58.667969 54 58.613281 C 53.953125 58.582031 53.894531 58.5625 53.839844 58.5625 L 36.839844 58.5625 C 36.667969 58.5625 36.53125 58.699219 36.53125 58.867188 Z M 36.53125 59.539062 "/>
</g>
</svg>
