<?xml version="1.0" encoding="UTF-8"?>
<svg xmlns="http://www.w3.org/2000/svg" xmlns:xlink="http://www.w3.org/1999/xlink" width="64px" height="64px" viewBox="0 0 64 64" version="1.1">
<g id="surface1">
<path style=" stroke:none;fill-rule:nonzero;fill:rgb(19.607843%,42.352941%,89.803922%);fill-opacity:1;" d="M 31.777344 0.00390625 C 31.210938 0.0351562 30.65625 0.179688 30.148438 0.429688 L 7.898438 11.386719 C 6.730469 11.960938 5.882812 13.046875 5.597656 14.335938 L 0.105469 38.945312 C -0.148438 40.089844 0.0585938 41.292969 0.683594 42.277344 C 0.757812 42.398438 0.839844 42.511719 0.925781 42.625 L 16.328125 62.355469 C 17.132812 63.390625 18.359375 63.992188 19.652344 63.992188 L 44.351562 63.988281 C 45.644531 63.988281 46.867188 63.386719 47.675781 62.355469 L 63.070312 42.617188 C 63.878906 41.585938 64.179688 40.230469 63.894531 38.9375 L 58.394531 14.332031 C 58.109375 13.039062 57.261719 11.953125 56.09375 11.378906 L 33.839844 0.429688 C 33.199219 0.113281 32.488281 -0.03125 31.777344 0.00390625 Z M 31.777344 0.00390625 "/>
<path style=" stroke:none;fill-rule:nonzero;fill:rgb(100%,100%,100%);fill-opacity:1;" d="M 32 8.378906 C 31.261719 8.378906 30.667969 9.0625 30.667969 9.90625 C 30.667969 9.917969 30.667969 9.929688 30.667969 9.941406 C 30.667969 10.058594 30.664062 10.195312 30.667969 10.296875 C 30.683594 10.78125 30.789062 11.152344 30.847656 11.601562 C 30.960938 12.558594 31.054688 13.351562 30.996094 14.089844 C 30.941406 14.367188 30.742188 14.621094 30.5625 14.800781 L 30.53125 15.378906 C 29.734375 15.449219 28.929688 15.574219 28.125 15.761719 C 24.667969 16.570312 21.691406 18.40625 19.425781 20.882812 C 19.277344 20.78125 19.019531 20.589844 18.941406 20.53125 C 18.707031 20.566406 18.464844 20.640625 18.152344 20.453125 C 17.554688 20.039062 17.011719 19.46875 16.355469 18.78125 C 16.054688 18.453125 15.835938 18.140625 15.480469 17.824219 C 15.398438 17.75 15.273438 17.652344 15.183594 17.578125 C 14.90625 17.347656 14.574219 17.230469 14.257812 17.21875 C 13.847656 17.203125 13.453125 17.367188 13.195312 17.703125 C 12.738281 18.292969 12.882812 19.199219 13.523438 19.726562 C 13.527344 19.730469 13.535156 19.734375 13.542969 19.742188 C 13.628906 19.8125 13.738281 19.90625 13.816406 19.96875 C 14.199219 20.257812 14.542969 20.40625 14.921875 20.632812 C 15.71875 21.140625 16.378906 21.5625 16.902344 22.070312 C 17.105469 22.292969 17.144531 22.6875 17.171875 22.859375 L 17.597656 23.253906 C 15.3125 26.796875 14.253906 31.175781 14.878906 35.632812 L 14.320312 35.800781 C 14.175781 35.996094 13.96875 36.304688 13.75 36.394531 C 13.066406 36.617188 12.292969 36.699219 11.363281 36.800781 C 10.925781 36.839844 10.546875 36.816406 10.085938 36.90625 C 9.984375 36.925781 9.839844 36.964844 9.730469 36.992188 C 9.726562 36.992188 9.722656 36.992188 9.71875 36.996094 C 9.710938 36.996094 9.703125 37 9.699219 37 C 8.914062 37.195312 8.410156 37.9375 8.570312 38.671875 C 8.734375 39.40625 9.5 39.851562 10.289062 39.675781 C 10.296875 39.671875 10.304688 39.671875 10.308594 39.671875 C 10.320312 39.667969 10.328125 39.664062 10.335938 39.664062 C 10.445312 39.636719 10.582031 39.609375 10.679688 39.582031 C 11.136719 39.457031 11.464844 39.273438 11.875 39.113281 C 12.757812 38.785156 13.484375 38.515625 14.195312 38.40625 C 14.492188 38.382812 14.804688 38.597656 14.960938 38.6875 L 15.542969 38.582031 C 16.878906 42.851562 19.679688 46.300781 23.222656 48.464844 L 22.980469 49.0625 C 23.066406 49.296875 23.164062 49.609375 23.097656 49.839844 C 22.839844 50.53125 22.398438 51.261719 21.894531 52.074219 C 21.648438 52.449219 21.398438 52.738281 21.179688 53.167969 C 21.128906 53.273438 21.058594 53.429688 21.007812 53.539062 C 20.667969 54.292969 20.917969 55.164062 21.574219 55.488281 C 22.238281 55.816406 23.058594 55.472656 23.414062 54.714844 C 23.414062 54.714844 23.414062 54.710938 23.417969 54.710938 C 23.417969 54.710938 23.414062 54.710938 23.417969 54.707031 C 23.46875 54.601562 23.539062 54.460938 23.582031 54.359375 C 23.769531 53.914062 23.832031 53.53125 23.964844 53.101562 C 24.316406 52.191406 24.511719 51.234375 24.996094 50.636719 C 25.128906 50.472656 25.347656 50.410156 25.570312 50.347656 L 25.871094 49.785156 C 28.960938 51.007812 32.421875 51.335938 35.878906 50.527344 C 36.664062 50.34375 37.425781 50.105469 38.164062 49.816406 C 38.246094 49.972656 38.40625 50.269531 38.445312 50.34375 C 38.675781 50.421875 38.925781 50.460938 39.125 50.769531 C 39.488281 51.410156 39.738281 52.164062 40.039062 53.078125 C 40.171875 53.507812 40.238281 53.890625 40.425781 54.335938 C 40.46875 54.4375 40.542969 54.582031 40.59375 54.6875 C 40.945312 55.445312 41.769531 55.792969 42.433594 55.464844 C 43.089844 55.140625 43.34375 54.269531 43 53.515625 C 42.949219 53.40625 42.878906 53.25 42.824219 53.144531 C 42.605469 52.714844 42.355469 52.425781 42.113281 52.050781 C 41.609375 51.238281 41.1875 50.5625 40.929688 49.875 C 40.824219 49.515625 40.949219 49.296875 41.035156 49.0625 C 40.984375 49.003906 40.875 48.667969 40.8125 48.511719 C 44.496094 46.269531 47.210938 42.691406 48.488281 38.558594 C 48.660156 38.585938 48.960938 38.640625 49.058594 38.660156 C 49.257812 38.523438 49.441406 38.347656 49.804688 38.375 C 50.515625 38.480469 51.246094 38.753906 52.125 39.078125 C 52.535156 39.242188 52.863281 39.429688 53.320312 39.554688 C 53.417969 39.582031 53.554688 39.605469 53.664062 39.628906 C 53.671875 39.632812 53.679688 39.636719 53.691406 39.640625 C 53.695312 39.640625 53.703125 39.640625 53.710938 39.640625 C 54.5 39.816406 55.265625 39.371094 55.429688 38.640625 C 55.589844 37.90625 55.085938 37.164062 54.300781 36.96875 C 54.1875 36.941406 54.027344 36.894531 53.914062 36.875 C 53.453125 36.785156 53.074219 36.804688 52.636719 36.769531 C 51.707031 36.667969 50.933594 36.585938 50.25 36.363281 C 49.972656 36.253906 49.773438 35.910156 49.675781 35.769531 L 49.136719 35.605469 C 49.417969 33.527344 49.339844 31.363281 48.859375 29.199219 C 48.371094 27.015625 47.511719 25.015625 46.363281 23.257812 C 46.5 23.125 46.761719 22.890625 46.835938 22.820312 C 46.855469 22.574219 46.839844 22.316406 47.085938 22.042969 C 47.609375 21.535156 48.269531 21.113281 49.066406 20.609375 C 49.445312 20.378906 49.792969 20.230469 50.171875 19.941406 C 50.257812 19.878906 50.375 19.773438 50.464844 19.699219 C 51.105469 19.175781 51.253906 18.269531 50.792969 17.675781 C 50.335938 17.082031 49.445312 17.027344 48.808594 17.550781 C 48.714844 17.625 48.59375 17.722656 48.511719 17.796875 C 48.152344 18.113281 47.933594 18.425781 47.632812 18.753906 C 46.976562 19.441406 46.433594 20.015625 45.835938 20.429688 C 45.578125 20.585938 45.199219 20.53125 45.027344 20.519531 L 44.523438 20.894531 C 41.632812 17.773438 37.703125 15.777344 33.46875 15.386719 C 33.457031 15.207031 33.441406 14.875 33.4375 14.777344 C 33.261719 14.605469 33.054688 14.457031 33 14.089844 C 32.941406 13.351562 33.039062 12.558594 33.152344 11.601562 C 33.214844 11.152344 33.316406 10.78125 33.332031 10.296875 C 33.335938 10.183594 33.332031 10.023438 33.332031 9.90625 C 33.332031 9.0625 32.734375 8.378906 32 8.378906 Z M 30.332031 19.023438 L 29.9375 26.222656 L 29.90625 26.238281 C 29.878906 26.882812 29.367188 27.398438 28.734375 27.398438 C 28.476562 27.398438 28.238281 27.3125 28.042969 27.164062 L 28.03125 27.171875 L 22.304688 22.988281 C 24.0625 21.203125 26.316406 19.882812 28.910156 19.277344 C 29.386719 19.167969 29.859375 19.082031 30.332031 19.023438 Z M 33.667969 19.023438 C 36.699219 19.410156 39.5 20.824219 41.648438 22.988281 L 35.957031 27.148438 L 35.9375 27.136719 C 35.433594 27.519531 34.71875 27.425781 34.328125 26.914062 C 34.164062 26.707031 34.082031 26.460938 34.070312 26.214844 L 34.066406 26.210938 Z M 20.226562 25.675781 L 25.457031 30.496094 L 25.449219 30.527344 C 25.921875 30.949219 25.992188 31.683594 25.597656 32.191406 C 25.4375 32.398438 25.222656 32.539062 24.988281 32.605469 L 24.984375 32.628906 L 18.28125 34.621094 C 17.9375 31.40625 18.675781 28.28125 20.226562 25.675781 Z M 43.734375 25.679688 C 44.511719 26.976562 45.097656 28.425781 45.449219 29.996094 C 45.796875 31.550781 45.882812 33.101562 45.738281 34.597656 L 39 32.597656 L 38.996094 32.570312 C 38.390625 32.398438 38.023438 31.765625 38.164062 31.132812 C 38.21875 30.871094 38.355469 30.652344 38.535156 30.492188 L 38.53125 30.476562 Z M 30.925781 30.867188 L 33.070312 30.867188 L 34.398438 32.585938 L 33.921875 34.726562 L 32 35.675781 L 30.070312 34.722656 L 29.589844 32.582031 Z M 37.796875 36.738281 C 37.886719 36.734375 37.976562 36.742188 38.066406 36.761719 L 38.078125 36.746094 L 45.011719 37.953125 C 43.996094 40.890625 42.054688 43.4375 39.460938 45.140625 L 36.769531 38.441406 L 36.777344 38.429688 C 36.527344 37.835938 36.777344 37.140625 37.34375 36.859375 C 37.492188 36.789062 37.644531 36.746094 37.796875 36.738281 Z M 26.148438 36.769531 C 26.675781 36.777344 27.152344 37.15625 27.273438 37.710938 C 27.332031 37.96875 27.304688 38.226562 27.210938 38.453125 L 27.230469 38.480469 L 24.566406 45.113281 C 22.074219 43.46875 20.09375 41 19.03125 37.976562 L 25.90625 36.773438 L 25.917969 36.789062 C 25.996094 36.773438 26.074219 36.765625 26.148438 36.769531 Z M 31.957031 39.675781 C 32.140625 39.667969 32.328125 39.707031 32.503906 39.792969 C 32.738281 39.910156 32.917969 40.09375 33.03125 40.3125 L 33.058594 40.3125 L 36.445312 46.621094 C 36.007812 46.773438 35.554688 46.902344 35.089844 47.011719 C 32.5 47.617188 29.917969 47.433594 27.578125 46.613281 L 30.957031 40.3125 L 30.960938 40.3125 C 31.164062 39.921875 31.550781 39.691406 31.957031 39.675781 Z M 31.957031 39.675781 "/>
</g>
</svg>
