<?xml version="1.0" encoding="UTF-8"?>
<svg xmlns="http://www.w3.org/2000/svg" xmlns:xlink="http://www.w3.org/1999/xlink" width="64px" height="64px" viewBox="0 0 64 64" version="1.1">
<g id="surface1">
<path style=" stroke:none;fill-rule:nonzero;fill:rgb(100%,100%,100%);fill-opacity:1;" d="M 9.601562 0 L 54.398438 0 C 59.703125 0 64 4.296875 64 9.601562 L 64 54.398438 C 64 59.703125 59.703125 64 54.398438 64 L 9.601562 64 C 4.296875 64 0 59.703125 0 54.398438 L 0 9.601562 C 0 4.296875 4.296875 0 9.601562 0 Z M 9.601562 0 "/>
<path style=" stroke:none;fill-rule:nonzero;fill:rgb(20%,20%,20%);fill-opacity:1;" d="M 24 25.75 C 23.25 27.5 18 33 18.5 38.5 C 20.5 61.5 27.5 46 38 51.75 C 38 51.75 56.75 41.25 41.75 24.25 C 37.5 18.25 41.25 13.5 38.5 9.5 C 35.75 5.5 31 5.25 27.5 9 C 24 12.75 29 18.25 24 25.75 "/>
<path style=" stroke:none;fill-rule:nonzero;fill:rgb(93.333333%,93.333333%,93.333333%);fill-opacity:1;" d="M 42.5 37.25 C 42.5 37.25 44.75 32.75 40.5 29.5 C 44.5 33.75 42 37.5 42 37.5 L 41.25 37.5 C 41 28.75 38.75 33.5 35.5 18 C 39.25 13.75 32 10 32 17 L 29.75 17 C 30 11 24.75 14 27.75 18.25 C 27.5 27.5 22 31.25 22 37.75 C 20.25 33.25 23.5 29.75 23.5 29.75 C 23.5 29.75 19 33.5 21.75 39 C 24.5 44.5 29.5 43.25 26 45.75 C 31.5 49.5 40 47 39.75 39 C 40 37 45.25 37.75 45.75 38.25 C 46.25 38.75 45 37.25 42.5 37.25 M 28.5 17.75 C 26.75 17.25 27.25 15 28 15 C 28.75 15 30 16.75 28.5 17.75 M 33.25 18 C 32 16.25 33 14.5 34.25 14.75 C 35.5 15 35.5 18 33.25 18 "/>
<path style="fill-rule:nonzero;fill:rgb(100%,80%,13.333333%);fill-opacity:1;stroke-width:1;stroke-linecap:butt;stroke-linejoin:miter;stroke:rgb(20%,20%,20%);stroke-opacity:1;stroke-miterlimit:4;" d="M -41 31 L -20 61 C -9 68 -15 96 -45 82 C -62 77 -76 78 -78 69 C -80 60 -74 59 -75 55 C -79 33 -61 44 -56 33 C -51 22 -51 17 -41 31 M 71 45 C 67 39 71 28 57 29 C 51 41 34 53 33 29 C 23 29 30 53 26 64 C 17 91 43 93 54 80 L 80 62 C 82 59 85 56 71 45 M -21 -47 C -24 -53 -10 -61 -5 -61 C 0 -61 7 -57 14 -55 C 21 -53 18 -46 16 -45 C 14 -44 3 -35 -5 -35 C -13 -35 -15 -43 -21 -47 " transform="matrix(0.25,0,0,0.25,32,32)"/>
<path style="fill-rule:nonzero;fill:rgb(100%,80%,13.333333%);fill-opacity:1;stroke-width:1;stroke-linecap:butt;stroke-linejoin:miter;stroke:rgb(20%,20%,20%);stroke-opacity:1;stroke-miterlimit:4;" d="M -21 -48 C -13 -42 -4 -37 14 -51 " transform="matrix(0.25,0,0,0.25,32,32)"/>
<path style=" stroke:none;fill-rule:nonzero;fill:rgb(20%,20%,20%);fill-opacity:1;" d="M 29.5 18.5 C 29 18.5 29.75 18 30 18.25 M 31.75 18.5 C 32 18.25 31.5 18 31 18.25 "/>
</g>
</svg>
