<?xml version="1.0" encoding="UTF-8"?>
<svg xmlns="http://www.w3.org/2000/svg" xmlns:xlink="http://www.w3.org/1999/xlink" width="64px" height="64px" viewBox="0 0 64 64" version="1.1">
<g id="surface1">
<path style=" stroke:none;fill-rule:nonzero;fill:rgb(0%,58.823529%,22.352941%);fill-opacity:1;" d="M 4.300781 47.984375 C 4.589844 48.503906 5.011719 48.890625 5.527344 49.179688 L 30.371094 63.503906 C 31.402344 64.117188 32.660156 64.117188 33.660156 63.503906 L 58.503906 49.179688 C 59.539062 48.597656 60.152344 47.503906 60.152344 46.308594 L 60.152344 17.65625 C 60.152344 16.464844 59.539062 15.367188 58.503906 14.785156 L 33.660156 0.460938 C 32.628906 -0.152344 31.371094 -0.152344 30.371094 0.460938 L 5.527344 14.785156 C 4.460938 15.367188 3.847656 16.464844 3.847656 17.65625 L 3.847656 46.339844 C 3.847656 46.921875 3.976562 47.46875 4.300781 47.984375 "/>
<path style=" stroke:none;fill-rule:nonzero;fill:rgb(100%,100%,100%);fill-opacity:1;" d="M 24.046875 42.921875 C 24.046875 44.695312 22.628906 46.113281 20.851562 46.113281 C 19.078125 46.113281 17.660156 44.695312 17.660156 42.921875 L 17.660156 21.011719 C 17.660156 19.300781 19.175781 17.914062 21.273438 17.914062 C 22.789062 17.914062 24.5625 18.527344 25.628906 19.851562 L 26.59375 21.011719 L 39.953125 36.984375 L 39.953125 21.078125 C 39.953125 19.300781 41.371094 17.882812 43.148438 17.882812 C 44.921875 17.882812 46.339844 19.300781 46.339844 21.078125 L 46.339844 42.984375 C 46.339844 44.695312 44.824219 46.082031 42.726562 46.082031 C 41.210938 46.082031 39.4375 45.46875 38.371094 44.148438 L 24.046875 27.046875 Z M 24.046875 42.921875 "/>
</g>
</svg>
