<?xml version="1.0" encoding="UTF-8"?>
<svg xmlns="http://www.w3.org/2000/svg" xmlns:xlink="http://www.w3.org/1999/xlink" width="64px" height="64px" viewBox="0 0 64 64" version="1.1">
<g id="surface1">
<path style=" stroke:none;fill-rule:nonzero;fill:rgb(85.490196%,30.588235%,19.215686%);fill-opacity:1;" d="M 32 0.167969 C 14.328125 0.167969 0 14.4375 0 32.039062 C 0 49.644531 14.328125 63.914062 32 63.914062 C 49.671875 63.914062 64 49.644531 64 32.039062 C 64 14.4375 49.671875 0.167969 32 0.167969 Z M 32 59.820312 C 26.972656 59.820312 22.894531 56.476562 22.894531 52.347656 L 41.105469 52.347656 C 41.105469 56.472656 37.027344 59.820312 32 59.820312 Z M 47.039062 49.875 L 16.960938 49.875 L 16.960938 44.441406 L 47.039062 44.441406 Z M 46.929688 41.648438 L 17.046875 41.648438 C 16.945312 41.53125 16.84375 41.421875 16.75 41.304688 C 13.671875 37.582031 12.945312 35.636719 12.242188 33.65625 C 12.230469 33.589844 15.972656 34.417969 18.628906 35.011719 C 18.628906 35.011719 19.996094 35.328125 21.996094 35.691406 C 20.078125 33.453125 18.9375 30.605469 18.9375 27.695312 C 18.9375 21.304688 23.855469 15.722656 22.082031 11.210938 C 23.808594 11.351562 25.65625 14.839844 25.78125 20.300781 C 27.617188 17.773438 28.386719 13.15625 28.386719 10.324219 C 28.386719 7.394531 30.324219 3.992188 32.265625 3.875 C 30.535156 6.710938 32.710938 9.144531 34.648438 15.179688 C 35.375 17.445312 35.28125 21.261719 35.839844 23.679688 C 36.027344 18.65625 36.894531 11.324219 40.09375 8.792969 C 38.683594 11.980469 40.304688 15.96875 41.410156 17.886719 C 43.199219 20.980469 44.285156 23.324219 44.285156 27.757812 C 44.285156 30.730469 43.183594 33.527344 41.324219 35.714844 C 43.4375 35.320312 44.898438 34.964844 44.898438 34.964844 L 51.757812 33.628906 C 51.757812 33.628906 50.761719 37.714844 46.929688 41.648438 Z M 46.929688 41.648438 "/>
</g>
</svg>
