<?xml version="1.0" encoding="UTF-8"?>
<svg xmlns="http://www.w3.org/2000/svg" xmlns:xlink="http://www.w3.org/1999/xlink" width="64px" height="64px" viewBox="0 0 64 64" version="1.1">
<defs>
<linearGradient id="linear0" gradientUnits="userSpaceOnUse" x1="-133.268" y1="-202.91" x2="-133.198" y2="-202.84" gradientTransform="matrix(378.76,0,0,379.62,50486.122,77038.34)">
<stop offset="0" style="stop-color:rgb(21.960784%,49.411765%,72.156863%);stop-opacity:1;"/>
<stop offset="1" style="stop-color:rgb(21.176471%,41.176471%,58.039216%);stop-opacity:1;"/>
</linearGradient>
<linearGradient id="linear1" gradientUnits="userSpaceOnUse" x1="-133.575" y1="-203.203" x2="-133.495" y2="-203.133" gradientTransform="matrix(378.76,0,0,379.62,50618.122,77166.84)">
<stop offset="0" style="stop-color:rgb(100%,87.843137%,32.156863%);stop-opacity:1;"/>
<stop offset="1" style="stop-color:rgb(100%,76.470588%,19.215686%);stop-opacity:1;"/>
</linearGradient>
</defs>
<g id="surface1">
<path style=" stroke:none;fill-rule:nonzero;fill:url(#linear0);" d="M 31.769531 4.199219 C 17.570312 4.199219 18.46875 10.339844 18.46875 10.339844 L 18.46875 16.71875 L 31.972656 16.71875 L 31.972656 18.71875 L 13.089844 18.71875 C 13.089844 18.71875 4 17.601562 4 32.011719 C 4 46.421875 12.027344 45.835938 12.027344 45.835938 L 16.660156 45.835938 L 16.660156 39.113281 C 16.660156 39.113281 16.398438 31.085938 24.460938 31.085938 L 37.984375 31.085938 C 37.984375 31.085938 45.527344 31.207031 45.527344 23.78125 L 45.527344 11.601562 C 45.527344 11.601562 46.671875 4.175781 31.84375 4.175781 Z M 24.304688 8.472656 C 25.648438 8.441406 26.761719 9.5 26.792969 10.839844 C 26.828125 12.179688 25.769531 13.292969 24.429688 13.328125 C 23.085938 13.363281 21.972656 12.300781 21.941406 10.960938 L 21.941406 10.921875 C 21.941406 9.582031 23.027344 8.492188 24.367188 8.492188 Z M 24.304688 8.472656 "/>
<path style=" stroke:none;fill-rule:nonzero;fill:url(#linear1);" d="M 32.171875 59.820312 C 46.371094 59.820312 45.472656 53.660156 45.472656 53.660156 L 45.472656 47.300781 L 31.96875 47.300781 L 31.96875 45.300781 L 50.910156 45.300781 C 50.910156 45.300781 60 46.316406 60 31.988281 C 60 17.664062 51.972656 18.164062 51.972656 18.164062 L 47.28125 18.164062 L 47.28125 24.800781 C 47.28125 24.800781 47.539062 32.824219 39.480469 32.824219 L 25.949219 32.824219 C 25.949219 32.824219 18.398438 32.710938 18.398438 40.136719 L 18.398438 52.398438 C 18.398438 52.398438 17.257812 59.824219 32.085938 59.824219 L 32.164062 59.824219 Z M 39.632812 55.527344 C 38.292969 55.558594 37.179688 54.5 37.144531 53.160156 C 37.113281 51.820312 38.171875 50.707031 39.511719 50.671875 C 40.851562 50.636719 41.964844 51.699219 42 53.039062 L 42 53.097656 C 42 54.4375 40.914062 55.527344 39.570312 55.527344 Z M 39.632812 55.527344 "/>
</g>
</svg>
